<svg width="18" height="18" viewBox="0 0 18 18" fill="none" xmlns="http://www.w3.org/2000/svg">
<path d="M14.25 3H13.5V2.25C13.5 1.8 13.2 1.5 12.75 1.5C12.3 1.5 12 1.8 12 2.25V3H6V2.25C6 1.8 5.7 1.5 5.25 1.5C4.8 1.5 4.5 1.8 4.5 2.25V3H3.75C2.475 3 1.5 3.975 1.5 5.25V6H16.5V5.25C16.5 3.975 15.525 3 14.25 3ZM1.5 14.25C1.5 15.525 2.475 16.5 3.75 16.5H14.25C15.525 16.5 16.5 15.525 16.5 14.25V7.5H1.5V14.25ZM12.75 9C13.2 9 13.5 9.3 13.5 9.75C13.5 10.2 13.2 10.5 12.75 10.5C12.3 10.5 12 10.2 12 9.75C12 9.3 12.3 9 12.75 9ZM12.75 12C13.2 12 13.5 12.3 13.5 12.75C13.5 13.2 13.2 13.5 12.75 13.5C12.3 13.5 12 13.2 12 12.75C12 12.3 12.3 12 12.75 12ZM9 9C9.45 9 9.75 9.3 9.75 9.75C9.75 10.2 9.45 10.5 9 10.5C8.55 10.5 8.25 10.2 8.25 9.75C8.25 9.3 8.55 9 9 9ZM9 12C9.45 12 9.75 12.3 9.75 12.75C9.75 13.2 9.45 13.5 9 13.5C8.55 13.5 8.25 13.2 8.25 12.75C8.25 12.3 8.55 12 9 12ZM5.25 9C5.7 9 6 9.3 6 9.75C6 10.2 5.7 10.5 5.25 10.5C4.8 10.5 4.5 10.2 4.5 9.75C4.5 9.3 4.8 9 5.25 9ZM5.25 12C5.7 12 6 12.3 6 12.75C6 13.2 5.7 13.5 5.25 13.5C4.8 13.5 4.5 13.2 4.5 12.75C4.5 12.3 4.8 12 5.25 12Z" fill="#363330"/>
</svg>
