<svg width="370" height="240" viewBox="0 0 370 240" fill="none" xmlns="http://www.w3.org/2000/svg">
<rect width="370" height="240" rx="18" fill="#F1F0EE"/>
<path fill-rule="evenodd" clip-rule="evenodd" d="M172.38 84.4225C180.778 83.6925 189.222 83.6925 197.62 84.4225L201.647 84.7726C205.501 85.1075 208.623 88.0399 209.198 91.865C210.407 99.9095 210.407 108.09 209.198 116.134C209.092 116.838 208.9 117.512 208.633 118.144C208.456 118.564 207.91 118.627 207.604 118.291L195.813 105.321C195.28 104.735 194.452 104.519 193.701 104.769L186.952 107.019L177.161 96.0043C176.796 95.5926 176.276 95.3501 175.725 95.3339C175.175 95.3177 174.642 95.5293 174.252 95.9188L161.148 109.023C160.745 109.426 160.057 109.17 160.025 108.6C159.71 103.017 159.969 97.4086 160.802 91.865C161.377 88.0399 164.499 85.1075 168.353 84.7726L172.38 84.4225ZM190.333 95.9997C190.333 93.7905 192.124 91.9997 194.333 91.9997C196.542 91.9997 198.333 93.7905 198.333 95.9997C198.333 98.2088 196.542 99.9997 194.333 99.9997C192.124 99.9997 190.333 98.2088 190.333 95.9997Z" fill="#8C8A87"/>
<path d="M160.897 114.931C160.749 115.079 160.679 115.287 160.709 115.494C160.739 115.707 160.77 115.921 160.802 116.134C161.377 119.959 164.499 122.892 168.353 123.227L172.38 123.577C180.778 124.307 189.223 124.307 197.62 123.577L201.647 123.227C202.78 123.128 203.849 122.806 204.809 122.302C205.172 122.111 205.234 121.63 204.957 121.326L194.022 109.297C193.844 109.102 193.568 109.03 193.318 109.113L186.966 111.23C186.207 111.483 185.37 111.26 184.839 110.662L176.051 100.776C175.796 100.489 175.352 100.476 175.081 100.747L160.897 114.931Z" fill="#8C8A87"/>
<path d="M147.123 162H145.535L150.128 149.491H151.692L156.285 162H154.697L150.959 151.47H150.861L147.123 162ZM147.709 157.114H154.11V158.457H147.709V157.114ZM161.18 162.195C160.398 162.195 159.708 161.998 159.11 161.603C158.511 161.204 158.043 160.642 157.705 159.917C157.367 159.188 157.198 158.327 157.198 157.334C157.198 156.348 157.367 155.493 157.705 154.768C158.043 154.043 158.513 153.483 159.116 153.088C159.718 152.694 160.415 152.496 161.205 152.496C161.816 152.496 162.298 152.598 162.652 152.801C163.011 153.001 163.283 153.229 163.471 153.486C163.662 153.738 163.811 153.946 163.917 154.109H164.039V149.491H165.48V162H164.088V160.559H163.917C163.811 160.73 163.66 160.945 163.465 161.206C163.269 161.462 162.99 161.693 162.628 161.896C162.265 162.096 161.783 162.195 161.18 162.195ZM161.376 160.901C161.954 160.901 162.443 160.75 162.842 160.449C163.241 160.143 163.544 159.722 163.752 159.184C163.959 158.643 164.063 158.018 164.063 157.309C164.063 156.609 163.961 155.996 163.758 155.471C163.554 154.941 163.253 154.53 162.854 154.237C162.455 153.94 161.962 153.791 161.376 153.791C160.765 153.791 160.256 153.948 159.849 154.261C159.446 154.571 159.142 154.992 158.939 155.526C158.739 156.055 158.639 156.649 158.639 157.309C158.639 157.977 158.741 158.584 158.945 159.129C159.152 159.671 159.458 160.102 159.861 160.424C160.268 160.742 160.773 160.901 161.376 160.901ZM171.463 162.195C170.681 162.195 169.991 161.998 169.393 161.603C168.794 161.204 168.326 160.642 167.988 159.917C167.65 159.188 167.481 158.327 167.481 157.334C167.481 156.348 167.65 155.493 167.988 154.768C168.326 154.043 168.796 153.483 169.399 153.088C170.001 152.694 170.698 152.496 171.488 152.496C172.098 152.496 172.581 152.598 172.935 152.801C173.293 153.001 173.566 153.229 173.754 153.486C173.945 153.738 174.094 153.946 174.199 154.109H174.322V149.491H175.763V162H174.37V160.559H174.199C174.094 160.73 173.943 160.945 173.747 161.206C173.552 161.462 173.273 161.693 172.911 161.896C172.548 162.096 172.066 162.195 171.463 162.195ZM171.659 160.901C172.237 160.901 172.725 160.75 173.124 160.449C173.524 160.143 173.827 159.722 174.035 159.184C174.242 158.643 174.346 158.018 174.346 157.309C174.346 156.609 174.244 155.996 174.041 155.471C173.837 154.941 173.536 154.53 173.137 154.237C172.738 153.94 172.245 153.791 171.659 153.791C171.048 153.791 170.539 153.948 170.132 154.261C169.728 154.571 169.425 154.992 169.221 155.526C169.022 156.055 168.922 156.649 168.922 157.309C168.922 157.977 169.024 158.584 169.228 159.129C169.435 159.671 169.741 160.102 170.144 160.424C170.551 160.742 171.056 160.901 171.659 160.901ZM186.452 162.195C185.573 162.195 184.815 161.988 184.18 161.572C183.545 161.157 183.056 160.585 182.714 159.856C182.372 159.127 182.201 158.295 182.201 157.358C182.201 156.405 182.376 155.564 182.726 154.835C183.081 154.102 183.573 153.53 184.204 153.119C184.84 152.704 185.581 152.496 186.428 152.496C187.087 152.496 187.682 152.618 188.211 152.862C188.741 153.107 189.174 153.449 189.512 153.889C189.85 154.328 190.06 154.841 190.141 155.428H188.7C188.59 155 188.346 154.622 187.967 154.292C187.592 153.958 187.087 153.791 186.452 153.791C185.89 153.791 185.398 153.937 184.974 154.231C184.555 154.52 184.227 154.929 183.991 155.458C183.759 155.984 183.643 156.601 183.643 157.309C183.643 158.034 183.757 158.665 183.985 159.203C184.217 159.74 184.542 160.157 184.962 160.455C185.385 160.752 185.882 160.901 186.452 160.901C186.827 160.901 187.167 160.835 187.472 160.705C187.778 160.575 188.036 160.387 188.248 160.143C188.46 159.899 188.61 159.606 188.7 159.264H190.141C190.06 159.817 189.858 160.316 189.537 160.76C189.219 161.2 188.798 161.55 188.272 161.811C187.751 162.067 187.144 162.195 186.452 162.195ZM195.66 162.195C194.813 162.195 194.07 161.994 193.431 161.591C192.795 161.188 192.299 160.624 191.94 159.899C191.586 159.174 191.409 158.327 191.409 157.358C191.409 156.381 191.586 155.528 191.94 154.799C192.299 154.07 192.795 153.504 193.431 153.101C194.07 152.698 194.813 152.496 195.66 152.496C196.507 152.496 197.248 152.698 197.883 153.101C198.523 153.504 199.019 154.07 199.374 154.799C199.732 155.528 199.911 156.381 199.911 157.358C199.911 158.327 199.732 159.174 199.374 159.899C199.019 160.624 198.523 161.188 197.883 161.591C197.248 161.994 196.507 162.195 195.66 162.195ZM195.66 160.901C196.303 160.901 196.833 160.736 197.248 160.406C197.663 160.076 197.971 159.642 198.17 159.105C198.37 158.567 198.47 157.985 198.47 157.358C198.47 156.731 198.37 156.147 198.17 155.605C197.971 155.063 197.663 154.626 197.248 154.292C196.833 153.958 196.303 153.791 195.66 153.791C195.017 153.791 194.487 153.958 194.072 154.292C193.657 154.626 193.349 155.063 193.15 155.605C192.95 156.147 192.85 156.731 192.85 157.358C192.85 157.985 192.95 158.567 193.15 159.105C193.349 159.642 193.657 160.076 194.072 160.406C194.487 160.736 195.017 160.901 195.66 160.901ZM209.047 152.618L205.578 162H204.112L200.643 152.618H202.206L204.796 160.094H204.894L207.484 152.618H209.047ZM214.147 162.195C213.243 162.195 212.464 161.996 211.808 161.597C211.157 161.194 210.654 160.632 210.299 159.911C209.949 159.186 209.774 158.343 209.774 157.382C209.774 156.421 209.949 155.574 210.299 154.841C210.654 154.104 211.146 153.53 211.777 153.119C212.413 152.704 213.154 152.496 214.001 152.496C214.489 152.496 214.972 152.577 215.448 152.74C215.925 152.903 216.358 153.168 216.749 153.534C217.14 153.897 217.452 154.377 217.684 154.976C217.916 155.574 218.032 156.311 218.032 157.187V157.798H210.8V156.552H216.566C216.566 156.022 216.46 155.55 216.249 155.135C216.041 154.719 215.744 154.392 215.357 154.151C214.974 153.911 214.522 153.791 214.001 153.791C213.427 153.791 212.93 153.933 212.51 154.218C212.095 154.499 211.775 154.866 211.551 155.318C211.328 155.77 211.216 156.254 211.216 156.772V157.602C211.216 158.311 211.338 158.911 211.582 159.404C211.83 159.893 212.175 160.265 212.614 160.522C213.054 160.774 213.565 160.901 214.147 160.901C214.526 160.901 214.868 160.848 215.174 160.742C215.483 160.632 215.75 160.469 215.974 160.253C216.198 160.033 216.371 159.76 216.493 159.435L217.885 159.826C217.739 160.298 217.492 160.713 217.146 161.072C216.8 161.426 216.373 161.703 215.864 161.902C215.355 162.098 214.783 162.195 214.147 162.195ZM219.825 162V152.618H221.217V154.035H221.315C221.486 153.571 221.796 153.194 222.244 152.905C222.691 152.616 223.196 152.472 223.758 152.472C223.864 152.472 223.997 152.474 224.155 152.478C224.314 152.482 224.434 152.488 224.516 152.496V153.962C224.467 153.95 224.355 153.931 224.18 153.907C224.009 153.878 223.828 153.864 223.636 153.864C223.18 153.864 222.773 153.96 222.415 154.151C222.06 154.339 221.779 154.599 221.572 154.933C221.368 155.263 221.266 155.64 221.266 156.063V162H219.825Z" fill="#8C8A87"/>
</svg>
