<svg width="34" height="34" viewBox="0 0 34 34" fill="none" xmlns="http://www.w3.org/2000/svg">
<path d="M26.0313 1.48828H7.93334C4.35384 1.48828 1.45209 4.39004 1.45209 7.96953V26.0674C1.45209 29.6469 4.35384 32.5487 7.93334 32.5487H26.0313C29.6108 32.5487 32.5125 29.6469 32.5125 26.0674V7.96953C32.5125 4.39004 29.6108 1.48828 26.0313 1.48828Z" fill="url(#paint0_linear_50906_16190)"/>
<path d="M8.25207 28.9015C7.15416 29.362 6.90624 29.0786 7.15416 28.4765C7.29582 28.0752 7.85069 26.7293 8.81874 24.439C7.14235 23.1877 6.13888 21.3814 5.80832 19.0203C5.20624 14.9828 5.84374 9.98905 10.5187 6.73072C15.1937 3.47238 22.1354 4.39322 25.2521 7.65155C28.6521 11.1578 30.1396 19.5515 24.6854 24.6161C21.0257 27.9925 16.7403 28.7245 11.8292 26.812C10.2 27.8981 9.00763 28.5946 8.25207 28.9015Z" fill="white"/>
<path d="M21.7458 18.5241C21.2854 22.3137 19.2313 23.9783 16.1146 23.9783C13.8007 23.9546 12.0535 22.9984 10.8729 21.1095C10.7313 20.9678 10.625 20.6845 10.625 20.3658C10.8021 20.4012 10.9438 20.0824 11.0146 20.0116C11.1208 19.9762 11.2271 19.9408 11.4042 19.8699C11.7583 20.3421 12.1715 20.7553 12.6438 21.1095C13.2813 21.6053 14.025 21.9595 14.8396 22.1012C15.6542 22.2074 16.5042 22.0658 17.2833 21.7116C17.6375 21.4991 17.9917 21.2512 18.275 20.9324C18.5583 20.6137 18.7708 20.2241 18.9125 19.8345C19.2313 19.0553 19.3021 18.2408 19.3375 17.4616C19.3611 16.6588 19.3493 15.8678 19.3021 15.0887L19.1958 13.9553C19.1604 13.5658 19.125 13.1762 19.125 12.7866C19.125 12.4324 19.1604 12.0428 19.2313 11.6887C19.3375 11.3345 19.5146 10.9803 19.6917 10.6616C19.4438 10.9449 19.1958 11.2637 19.0542 11.6178C18.8771 12.0074 18.8063 12.397 18.7708 12.7866C18.7 13.5658 18.7354 14.3449 18.7354 15.1241C18.7354 15.8678 18.7 16.647 18.6646 17.4262C18.6292 18.1699 18.5229 18.9137 18.275 19.5866C18.1569 19.9171 17.9917 20.2241 17.7792 20.5074C17.5667 20.7671 17.2951 20.9796 16.9646 21.1449C16.3625 21.4637 15.6188 21.6408 14.9104 21.5699C14.2021 21.5345 13.4583 21.2512 12.8208 20.8616C12.3486 20.5783 11.9118 20.2359 11.5104 19.8345C11.5576 19.8109 11.6049 19.7873 11.6521 19.7637C12.0063 19.5512 12.0771 19.2678 12.1479 19.2324C12.1833 19.197 12.1833 19.1616 12.1833 19.0908C13.4229 19.7991 15.5833 20.2595 16.8583 19.0908C18.1688 17.922 17.7792 14.4512 18.1333 12.6095C18.4521 10.7678 19.6917 10.8741 19.7625 10.5908C19.7625 10.4137 19.7625 9.98867 19.7271 9.66992C19.9042 9.66992 20.2229 9.66992 20.5063 9.74076C20.5063 9.95326 20.4708 10.2366 20.5063 10.3783C20.6479 10.9095 21.3208 11.122 21.6042 11.972C21.9583 12.9991 22.1708 15.0178 21.7458 18.5241Z" fill="#FFD036"/>
<path d="M11.4042 19.8704C11.2271 19.9413 11.1208 19.9767 11.0146 20.0121C10.9438 20.0829 10.8021 20.4017 10.625 20.3663C10.5778 20.3663 10.5306 20.3191 10.4833 20.2246C10.2354 19.7996 10.3771 19.7996 10.5188 19.5163C10.625 19.2329 11.0854 18.985 11.3688 18.8434C11.5104 18.7371 11.8646 18.7371 12.0417 18.8434C12.1125 18.8788 12.1833 18.985 12.1833 19.0913C12.1833 19.1621 12.1833 19.1975 12.1479 19.2329C12.0771 19.2684 12.0063 19.5517 11.6521 19.7642C11.6049 19.7878 11.5576 19.8114 11.5104 19.835" fill="#904F1D"/>
<path d="M21.25 9.59944C21.1792 9.98902 21.0021 9.88277 20.5771 9.7411C20.5535 9.7411 20.5299 9.7411 20.5063 9.7411C20.2229 9.67027 19.9042 9.67027 19.7271 9.67027C19.7035 9.67027 19.6799 9.68208 19.6563 9.70569C19.3965 9.75291 19.184 9.69388 19.0188 9.5286C18.7354 9.28069 18.5583 9.06819 18.4875 8.74944C18.4639 8.51333 18.582 8.26541 18.8417 8.00569C19.0896 7.86402 21.0375 8.53694 21.3208 8.82027C21.5688 9.13902 21.2854 9.17444 21.25 9.59944Z" fill="#904F1D"/>
<defs>
<linearGradient id="paint0_linear_50906_16190" x1="11.8646" y1="42.5716" x2="-8.60624" y2="19.232" gradientUnits="userSpaceOnUse">
<stop stop-color="#FFA43C"/>
<stop offset="1" stop-color="#FFD036"/>
</linearGradient>
</defs>
</svg>
