<svg width="34" height="34" viewBox="0 0 34 34" fill="none" xmlns="http://www.w3.org/2000/svg">
<rect width="34" height="34" rx="10" fill="#EAE9E6"/>
<path d="M10.4667 27.268C10.3733 27.268 10.1867 27.268 10.0933 27.1746C9.71999 27.0813 9.53333 26.708 9.53333 26.3346V10.468C9.53333 8.8813 10.7467 7.66797 12.3333 7.66797H21.6667C23.2533 7.66797 24.4667 8.8813 24.4667 10.468V26.3346C24.4667 26.708 24.28 27.0813 23.9067 27.1746C23.5333 27.3613 23.16 27.268 22.88 26.988L17.6533 22.1346C17.28 21.7613 16.72 21.7613 16.3467 22.1346L11.12 26.988C10.9333 27.1746 10.6533 27.268 10.4667 27.268ZM12.3333 9.53464C11.7733 9.53464 11.4 9.90797 11.4 10.468V24.188L15.1333 20.7346C16.16 19.708 17.84 19.708 18.96 20.7346L22.6933 24.188V10.468C22.6933 9.90797 22.32 9.53464 21.76 9.53464H12.3333Z" fill="#363330"/>
</svg>
