<svg width="23" height="22" viewBox="0 0 23 22" fill="none" xmlns="http://www.w3.org/2000/svg">
<path d="M3.25 8.43808V17.6587C3.25 18.7903 4.16738 19.7077 5.29902 19.7077H17.5931C18.7248 19.7077 19.6422 18.7903 19.6422 17.6587V8.43808M3.25 8.43808V6.38906C3.25 5.25741 4.16738 4.34004 5.29902 4.34004H7.34804M3.25 8.43808H19.6422M19.6422 8.43808V6.38906C19.6422 5.25741 18.7248 4.34004 17.5931 4.34004H15.5441M7.34804 2.29102V4.34004M7.34804 4.34004H15.5441M15.5441 2.29102V4.34004M11.4461 16.1219V14.0729M11.4461 14.0729V12.0239M11.4461 14.0729H13.4951M11.4461 14.0729H9.39706" stroke="#686664" stroke-width="1.5" stroke-linecap="round" stroke-linejoin="round"/>
</svg>
