<svg width="24" height="24" viewBox="0 0 24 24" fill="none" xmlns="http://www.w3.org/2000/svg">
<g clip-path="url(#clip0_50543_10773)">
<path d="M13.6508 12.004L18.6669 6.99955C18.8866 6.77989 19.01 6.48196 19.01 6.17131C19.01 5.86066 18.8866 5.56273 18.6669 5.34307C18.4473 5.12341 18.1493 5 17.8387 5C17.528 5 17.2301 5.12341 17.0104 5.34307L12.006 10.3592L7.00154 5.34307C6.78188 5.12341 6.48395 5 6.1733 5C5.86265 5 5.56472 5.12341 5.34506 5.34307C5.1254 5.56273 5.00199 5.86066 5.00199 6.17131C5.00199 6.48196 5.1254 6.77989 5.34506 6.99955L10.3612 12.004L5.34506 17.0085C5.23572 17.1169 5.14894 17.2459 5.08972 17.3881C5.03049 17.5302 5 17.6827 5 17.8367C5 17.9907 5.03049 18.1432 5.08972 18.2853C5.14894 18.4275 5.23572 18.5565 5.34506 18.6649C5.45351 18.7743 5.58253 18.8611 5.72468 18.9203C5.86683 18.9795 6.01931 19.01 6.1733 19.01C6.3273 19.01 6.47977 18.9795 6.62193 18.9203C6.76408 18.8611 6.8931 18.7743 7.00154 18.6649L12.006 13.6488L17.0104 18.6649C17.1189 18.7743 17.2479 18.8611 17.3901 18.9203C17.5322 18.9795 17.6847 19.01 17.8387 19.01C17.9927 19.01 18.1452 18.9795 18.2873 18.9203C18.4295 18.8611 18.5585 18.7743 18.6669 18.6649C18.7763 18.5565 18.8631 18.4275 18.9223 18.2853C18.9815 18.1432 19.012 17.9907 19.012 17.8367C19.012 17.6827 18.9815 17.5302 18.9223 17.3881C18.8631 17.2459 18.7763 17.1169 18.6669 17.0085L13.6508 12.004Z" fill="#363330"/>
</g>
<defs>
<clipPath id="clip0_50543_10773">
<rect width="24" height="24" fill="white"/>
</clipPath>
</defs>
</svg>
