<svg width="34" height="34" viewBox="0 0 34 34" fill="none" xmlns="http://www.w3.org/2000/svg">
<rect width="34" height="34" rx="10" fill="#EAE9E6"/>
<path fill-rule="evenodd" clip-rule="evenodd" d="M18.1661 10.6997H8.59941C8.21282 10.6997 7.89941 11.0131 7.89941 11.3997V14.1997C7.89941 14.5863 8.21282 14.8997 8.59941 14.8997C9.75921 14.8997 10.6994 15.8399 10.6994 16.9997C10.6994 18.1595 9.75921 19.0997 8.59941 19.0997C8.21282 19.0997 7.89941 19.4131 7.89941 19.7997V22.5997C7.89941 22.9863 8.21282 23.2997 8.59941 23.2997H18.1661V21.6664C18.1661 21.2798 18.4795 20.9664 18.8661 20.9664C19.2527 20.9664 19.5661 21.2798 19.5661 21.6664V23.2997H25.3994C25.786 23.2997 26.0994 22.9863 26.0994 22.5997V19.7997C26.0994 19.4131 25.786 19.0997 25.3994 19.0997C24.2397 19.0997 23.2994 18.1595 23.2994 16.9997C23.2994 15.8399 24.2397 14.8997 25.3994 14.8997C25.786 14.8997 26.0994 14.5863 26.0994 14.1997V11.3997C26.0994 11.0131 25.786 10.6997 25.3994 10.6997H19.5661V12.333C19.5661 12.7196 19.2527 13.033 18.8661 13.033C18.4795 13.033 18.1661 12.7196 18.1661 12.333V10.6997ZM19.5661 15.5997C19.5661 15.2131 19.2527 14.8997 18.8661 14.8997C18.4795 14.8997 18.1661 15.2131 18.1661 15.5997V17.933C18.1661 18.3196 18.4795 18.633 18.8661 18.633C19.2527 18.633 19.5661 18.3196 19.5661 17.933V15.5997Z" fill="#363330"/>
</svg>
