<svg width="24" height="24" viewBox="0 0 24 24" fill="none" xmlns="http://www.w3.org/2000/svg">
<path d="M1.5 5.2493H1.6065C1.7702 5.89249 2.14354 6.4628 2.66754 6.87013C3.19153 7.27746 3.83631 7.4986 4.5 7.4986C5.16369 7.4986 5.80847 7.27746 6.33246 6.87013C6.85646 6.4628 7.2298 5.89249 7.3935 5.2493H22.5C22.6989 5.2493 22.8897 5.17028 23.0303 5.02963C23.171 4.88898 23.25 4.69821 23.25 4.4993C23.25 4.30039 23.171 4.10962 23.0303 3.96897C22.8897 3.82832 22.6989 3.7493 22.5 3.7493H7.3935C7.2298 3.10611 6.85646 2.5358 6.33246 2.12847C5.80847 1.72113 5.16369 1.5 4.5 1.5C3.83631 1.5 3.19153 1.72113 2.66754 2.12847C2.14354 2.5358 1.7702 3.10611 1.6065 3.7493H1.5C1.30109 3.7493 1.11032 3.82832 0.96967 3.96897C0.829018 4.10962 0.75 4.30039 0.75 4.4993C0.75 4.69821 0.829018 4.88898 0.96967 5.02963C1.11032 5.17028 1.30109 5.2493 1.5 5.2493ZM4.5 2.9993C4.79667 2.9993 5.08668 3.08727 5.33335 3.25209C5.58003 3.41692 5.77229 3.65118 5.88582 3.92527C5.99935 4.19936 6.02906 4.50096 5.97118 4.79193C5.9133 5.08291 5.77044 5.35018 5.56066 5.55996C5.35088 5.76974 5.08361 5.9126 4.79264 5.97048C4.50166 6.02835 4.20006 5.99865 3.92597 5.88512C3.65189 5.77159 3.41762 5.57933 3.2528 5.33265C3.08797 5.08598 3 4.79597 3 4.4993C3 4.10147 3.15804 3.71994 3.43934 3.43864C3.72064 3.15733 4.10218 2.9993 4.5 2.9993ZM22.5 11.2493H22.3935C22.2298 10.6061 21.8565 10.0358 21.3325 9.62847C20.8085 9.22113 20.1637 9 19.5 9C18.8363 9 18.1915 9.22113 17.6675 9.62847C17.1435 10.0358 16.7702 10.6061 16.6065 11.2493H1.5C1.30109 11.2493 1.11032 11.3283 0.96967 11.469C0.829018 11.6096 0.75 11.8004 0.75 11.9993C0.75 12.1982 0.829018 12.389 0.96967 12.5296C1.11032 12.6703 1.30109 12.7493 1.5 12.7493H16.6065C16.7702 13.3925 17.1435 13.9628 17.6675 14.3701C18.1915 14.7775 18.8363 14.9986 19.5 14.9986C20.1637 14.9986 20.8085 14.7775 21.3325 14.3701C21.8565 13.9628 22.2298 13.3925 22.3935 12.7493H22.5C22.6989 12.7493 22.8897 12.6703 23.0303 12.5296C23.171 12.389 23.25 12.1982 23.25 11.9993C23.25 11.8004 23.171 11.6096 23.0303 11.469C22.8897 11.3283 22.6989 11.2493 22.5 11.2493ZM19.5 13.4993C19.2033 13.4993 18.9133 13.4113 18.6666 13.2465C18.42 13.0817 18.2277 12.8474 18.1142 12.5733C18.0006 12.2992 17.9709 11.9976 18.0288 11.7067C18.0867 11.4157 18.2296 11.1484 18.4393 10.9386C18.6491 10.7289 18.9164 10.586 19.2074 10.5281C19.4983 10.4702 19.7999 10.4999 20.074 10.6135C20.3481 10.727 20.5824 10.9193 20.7472 11.1659C20.912 11.4126 21 11.7026 21 11.9993C21 12.3971 20.842 12.7787 20.5607 13.06C20.2794 13.3413 19.8978 13.4993 19.5 13.4993ZM22.5 18.7493H14.8935C14.7298 18.1061 14.3565 17.5358 13.8325 17.1285C13.3085 16.7211 12.6637 16.5 12 16.5C11.3363 16.5 10.6915 16.7211 10.1675 17.1285C9.64354 17.5358 9.2702 18.1061 9.1065 18.7493H1.5C1.30109 18.7493 1.11032 18.8283 0.96967 18.969C0.829018 19.1096 0.75 19.3004 0.75 19.4993C0.75 19.6982 0.829018 19.889 0.96967 20.0296C1.11032 20.1703 1.30109 20.2493 1.5 20.2493H9.1065C9.2702 20.8925 9.64354 21.4628 10.1675 21.8701C10.6915 22.2775 11.3363 22.4986 12 22.4986C12.6637 22.4986 13.3085 22.2775 13.8325 21.8701C14.3565 21.4628 14.7298 20.8925 14.8935 20.2493H22.5C22.6989 20.2493 22.8897 20.1703 23.0303 20.0296C23.171 19.889 23.25 19.6982 23.25 19.4993C23.25 19.3004 23.171 19.1096 23.0303 18.969C22.8897 18.8283 22.6989 18.7493 22.5 18.7493ZM12 20.9993C11.7033 20.9993 11.4133 20.9113 11.1666 20.7465C10.92 20.5817 10.7277 20.3474 10.6142 20.0733C10.5006 19.7992 10.4709 19.4976 10.5288 19.2067C10.5867 18.9157 10.7296 18.6484 10.9393 18.4386C11.1491 18.2289 11.4164 18.086 11.7074 18.0281C11.9983 17.9702 12.2999 17.9999 12.574 18.1135C12.8481 18.227 13.0824 18.4193 13.2472 18.6659C13.412 18.9126 13.5 19.2026 13.5 19.4993C13.5 19.8971 13.342 20.2787 13.0607 20.56C12.7794 20.8413 12.3978 20.9993 12 20.9993Z" fill="#363330"/>
</svg>
