<svg width="22" height="22" viewBox="0 0 22 22" fill="none" xmlns="http://www.w3.org/2000/svg">
<path d="M19.1198 9.51144C19.1032 9.41742 19.0207 9.35 18.9253 9.35H11.2C11.0895 9.35 11 9.43954 11 9.55V12.45C11 12.5605 11.0895 12.65 11.2 12.65H15.6625C14.9823 14.571 13.1545 15.95 11 15.95C8.26636 15.95 6.05 13.7336 6.05 11C6.05 8.26636 8.26636 6.05 11 6.05C12.194 6.05 13.2861 6.47624 14.1406 7.18087C14.2224 7.24826 14.3424 7.24509 14.4173 7.17019L16.4709 5.11656C16.551 5.03651 16.5488 4.90584 16.4641 4.83071C15.0086 3.53979 13.0986 2.75 11 2.75C6.44394 2.75 2.75 6.44394 2.75 11C2.75 15.5561 6.44394 19.25 11 19.25C15.5561 19.25 19.25 15.5561 19.25 11C19.25 10.5033 19.2041 9.98954 19.1198 9.51144Z" fill="#FFA43C"/>
</svg>
