<svg width="40" height="40" viewBox="0 0 40 40" fill="none" xmlns="http://www.w3.org/2000/svg">
<rect width="40" height="40" rx="14" fill="#EAE9E6"/>
<g clip-path="url(#clip0_50433_35911)">
<path d="M23 20C25.21 20 27 18.21 27 16C27 13.79 25.21 12 23 12C20.79 12 19 13.79 19 16C19 18.21 20.79 20 23 20ZM14 18V16C14 15.45 13.55 15 13 15C12.45 15 12 15.45 12 16V18H10C9.45 18 9 18.45 9 19C9 19.55 9.45 20 10 20H12V22C12 22.55 12.45 23 13 23C13.55 23 14 22.55 14 22V20H16C16.55 20 17 19.55 17 19C17 18.45 16.55 18 16 18H14ZM23 22C20.33 22 15 23.34 15 26V27C15 27.55 15.45 28 16 28H30C30.55 28 31 27.55 31 27V26C31 23.34 25.67 22 23 22Z" fill="#363330"/>
</g>
<defs>
<clipPath id="clip0_50433_35911">
<rect width="24" height="24" fill="white" transform="translate(8 8)"/>
</clipPath>
</defs>
</svg>
