<svg width="18" height="16" viewBox="0 0 18 16" fill="none" xmlns="http://www.w3.org/2000/svg">
<path d="M8.31593 2.82233L9.00002 3.62252L9.68411 2.82233C10.4275 1.95278 11.5723 1.4 12.75 1.4C14.8238 1.4 16.4334 3.00956 16.4334 5.08333C16.4334 6.3605 15.8662 7.59164 14.6834 9.03876C13.4905 10.4982 11.7674 12.065 9.60375 14.0292C9.60364 14.0293 9.60354 14.0294 9.60343 14.0294L9.00002 14.5767L8.39661 14.0294C6.23277 12.0652 4.50961 10.4983 3.31665 9.03876C2.13381 7.59164 1.56669 6.3605 1.56669 5.08333C1.56669 3.00956 3.17624 1.4 5.25002 1.4C6.42773 1.4 7.57255 1.95278 8.31593 2.82233Z" fill="#EE6E85" stroke="#EE6E85" stroke-width="1.8"/>
</svg>
