<svg width="24" height="24" viewBox="0 0 24 24" fill="none" xmlns="http://www.w3.org/2000/svg">
<g clip-path="url(#clip0_50433_37785)">
<path d="M1 12C1 4 4 1 12 1C20 1 23 4 23 12C23 20 20 23 12 23C4 23 1 20 1 12Z" fill="white"/>
<path d="M15.84 9.33023C15.84 8.3118 15.4354 7.33508 14.7153 6.61494C13.9951 5.8948 13.0184 5.49023 12 5.49023C10.9816 5.49023 10.0048 5.8948 9.2847 6.61494C8.56456 7.33508 8.15999 8.3118 8.15999 9.33023C8.155 9.39681 8.155 9.46366 8.15999 9.53023C8.27999 12.3702 10.85 13.7102 11.72 18.2602C11.7362 18.3194 11.7715 18.3716 11.8202 18.4087C11.869 18.4459 11.9286 18.4661 11.99 18.4661C12.0513 18.4661 12.111 18.4459 12.1597 18.4087C12.2085 18.3716 12.2437 18.3194 12.26 18.2602C13.13 13.7102 15.7 12.3702 15.82 9.53023C15.8317 9.46416 15.8383 9.39731 15.84 9.33023Z" fill="#FFA43C"/>
<path d="M12 7.53906C12.3535 7.54104 12.6986 7.6477 12.9917 7.84558C13.2847 8.04347 13.5126 8.32371 13.6465 8.65096C13.7805 8.97821 13.8145 9.3378 13.7443 9.68436C13.6741 10.0309 13.5029 10.3489 13.2521 10.5983C13.0014 10.8476 12.6825 11.0171 12.3355 11.0854C11.9886 11.1536 11.6292 11.1176 11.3027 10.9818C10.9762 10.8461 10.6972 10.6166 10.5009 10.3225C10.3047 10.0283 10.2 9.68266 10.2 9.32906C10.2026 8.85341 10.3934 8.39814 10.7307 8.06273C11.068 7.72732 11.5243 7.53906 12 7.53906Z" fill="white"/>
</g>
<defs>
<clipPath id="clip0_50433_37785">
<rect width="24" height="24" fill="white"/>
</clipPath>
</defs>
</svg>
