<svg width="34" height="34" viewBox="0 0 34 34" fill="none" xmlns="http://www.w3.org/2000/svg">
<rect width="34" height="34" rx="10" fill="#EAE9E6"/>
<path d="M9.53329 15.6016C8.50236 15.6016 7.66663 16.4373 7.66663 17.4682C7.66663 18.4992 8.50236 19.3349 9.53329 19.3349C10.5642 19.3349 11.4 18.4992 11.4 17.4682C11.4 16.4373 10.5642 15.6016 9.53329 15.6016Z" fill="#363330"/>
<path d="M15.1333 17.4682C15.1333 16.4373 15.969 15.6016 17 15.6016C18.0309 15.6016 18.8666 16.4373 18.8666 17.4682C18.8666 18.4992 18.0309 19.3349 17 19.3349C15.969 19.3349 15.1333 18.4992 15.1333 17.4682Z" fill="#363330"/>
<path d="M22.6 17.4682C22.6 16.4373 23.4357 15.6016 24.4666 15.6016C25.4976 15.6016 26.3333 16.4373 26.3333 17.4682C26.3333 18.4992 25.4976 19.3349 24.4666 19.3349C23.4357 19.3349 22.6 18.4992 22.6 17.4682Z" fill="#363330"/>
</svg>
