<svg width="34" height="34" viewBox="0 0 34 34" fill="none" xmlns="http://www.w3.org/2000/svg">
<path d="M22.1955 14.3057L18.2855 17.4537C17.5456 18.0339 16.5083 18.0339 15.7684 17.4537L11.8248 14.3057" stroke="#686664" stroke-width="1.5" stroke-linecap="round" stroke-linejoin="round"/>
<path fill-rule="evenodd" clip-rule="evenodd" d="M12.6805 9.20801H21.3228C22.5689 9.22198 23.7549 9.74878 24.6046 10.6657C25.4543 11.5826 25.8936 12.8096 25.8201 14.0609V20.0448C25.8936 21.2962 25.4543 22.5232 24.6046 23.4401C23.7549 24.357 22.5689 24.8838 21.3228 24.8978H12.6805C10.0039 24.8978 8.19995 22.7203 8.19995 20.0448V14.0609C8.19995 11.3855 10.0039 9.20801 12.6805 9.20801Z" stroke="#686664" stroke-width="1.5" stroke-linecap="round" stroke-linejoin="round"/>
<rect x="0.65" y="0.65" width="32.7" height="32.7" rx="16.35" stroke="#686664" stroke-width="1.3"/>
</svg>
