<svg width="32" height="33" viewBox="0 0 32 33" fill="none" xmlns="http://www.w3.org/2000/svg">
<path fill-rule="evenodd" clip-rule="evenodd" d="M3.5 16.2998C3.5 9.39624 9.09644 3.7998 16 3.7998C22.9036 3.7998 28.5 9.39624 28.5 16.2998C28.5 23.2034 22.9036 28.7998 16 28.7998C9.09644 28.7998 3.5 23.2034 3.5 16.2998ZM16.9615 9.88955C16.9615 9.35851 16.531 8.92801 16 8.92801C15.469 8.92801 15.0385 9.35851 15.0385 9.88955V16.2998C15.0385 16.5548 15.1397 16.7994 15.3201 16.9797L17.8842 19.5438C18.2597 19.9193 18.8685 19.9193 19.244 19.5438C19.6195 19.1683 19.6195 18.5595 19.244 18.184L16.9615 15.9015V9.88955Z" fill="url(#paint0_linear_50516_4409)"/>
<defs>
<linearGradient id="paint0_linear_50516_4409" x1="3.5" y1="3.7998" x2="30.2528" y2="5.84239" gradientUnits="userSpaceOnUse">
<stop stop-color="#FFD036"/>
<stop offset="1" stop-color="#FFA43C"/>
</linearGradient>
</defs>
</svg>
