<svg width="32" height="33" viewBox="0 0 32 33" fill="none" xmlns="http://www.w3.org/2000/svg">
<path d="M28.7011 12.3163C28.7938 10.3695 28.1449 8.51541 26.847 7.12483C25.5491 5.73425 23.695 4.8999 21.8409 4.8999H10.16C6.26638 4.8999 3.2998 8.05189 3.2998 12.2236V20.289C3.2998 24.4607 6.26638 27.6127 10.16 27.6127V27.7054H21.8409C23.695 27.7054 25.5491 26.8711 26.847 25.4805C28.1449 24.0899 28.7938 22.2358 28.7011 20.3817V12.3163ZM23.5096 13.058L18.2254 17.3224C17.4837 17.786 16.7421 18.0641 16.0004 18.0641C15.2588 18.0641 14.5172 17.786 13.8682 17.3224L8.58401 13.058C8.3059 12.7799 8.21319 12.409 8.49131 12.0382C8.76942 11.7601 9.14025 11.6674 9.51107 11.9455L14.7953 16.21C15.5369 16.7662 16.5567 16.7662 17.2983 16.21L22.5825 11.9455C22.8606 11.6674 23.3242 11.7601 23.6023 12.0382C23.8804 12.3163 23.7877 12.7799 23.5096 13.058Z" fill="url(#paint0_linear_50516_4493)"/>
<defs>
<linearGradient id="paint0_linear_50516_4493" x1="3.2998" y1="4.8999" x2="30.4534" y2="7.20985" gradientUnits="userSpaceOnUse">
<stop stop-color="#FFD036"/>
<stop offset="1" stop-color="#FFA43C"/>
</linearGradient>
</defs>
</svg>
