<svg width="14" height="14" viewBox="0 0 14 14" fill="none" xmlns="http://www.w3.org/2000/svg">
<path d="M4.66667 6.56185C6.03587 6.56185 7.14583 5.45189 7.14583 4.08268C7.14583 2.71348 6.03587 1.60352 4.66667 1.60352C3.29746 1.60352 2.1875 2.71348 2.1875 4.08268C2.1875 5.45189 3.29746 6.56185 4.66667 6.56185Z" fill="white"/>
<path d="M5.83342 7.14648H3.50008C2.7655 7.14741 2.06126 7.43963 1.54183 7.95907C1.0224 8.4785 0.730174 9.18273 0.729248 9.91732V12.2507C0.729248 12.3667 0.775342 12.478 0.857389 12.56C0.939436 12.6421 1.05072 12.6882 1.16675 12.6882H8.16675C8.28278 12.6882 8.39406 12.6421 8.47611 12.56C8.55815 12.478 8.60425 12.3667 8.60425 12.2507V9.91732C8.60332 9.18273 8.3111 8.4785 7.79167 7.95907C7.27224 7.43963 6.568 7.14741 5.83342 7.14648Z" fill="white"/>
<path d="M9.79952 7.28752C11.0067 7.28752 11.9853 6.30892 11.9853 5.10177C11.9853 3.89461 11.0067 2.91602 9.79952 2.91602C8.59236 2.91602 7.61377 3.89461 7.61377 5.10177C7.61377 6.30892 8.59236 7.28752 9.79952 7.28752Z" fill="white"/>
<path d="M13.2709 10.2431V12.3023C13.27 12.4041 13.2292 12.5015 13.1572 12.5735C13.0852 12.6455 12.9878 12.6864 12.8859 12.6873H9.18761V9.91646C9.1867 9.15612 8.92523 8.41906 8.44678 7.82813C8.55485 7.81145 8.6641 7.80365 8.77344 7.8048H10.8268C11.4741 7.80433 12.0952 8.06089 12.5535 8.5181C13.0118 8.97531 13.2699 9.59577 13.2709 10.2431Z" fill="white"/>
</svg>
