<svg width="22" height="22" viewBox="0 0 22 22" fill="none" xmlns="http://www.w3.org/2000/svg">
<path d="M4.58346 9.03872C6.34015 12.8648 9.46599 15.9067 13.3522 17.5558L13.9752 17.8334C15.4004 18.4684 17.0759 17.986 17.9452 16.6903L18.7593 15.4769C19.024 15.0823 18.9434 14.551 18.5736 14.2527L15.8128 12.0254C15.4072 11.6983 14.8109 11.7744 14.5007 12.1931L13.6466 13.3455C11.4551 12.2645 9.67576 10.4852 8.5947 8.29361L9.74718 7.43953C10.1658 7.12931 10.242 6.533 9.91483 6.12749L7.68745 3.36654C7.38922 2.99686 6.85801 2.91623 6.46351 3.18075L5.24174 3.99997C3.93792 4.8742 3.45815 6.56348 4.10783 7.99252L4.58274 9.03716L4.58346 9.03872Z" fill="#FFA43C"/>
</svg>
