<svg width="40" height="40" viewBox="0 0 40 40" fill="none" xmlns="http://www.w3.org/2000/svg">
<rect width="40" height="40" rx="20" fill="url(#paint0_linear_50433_37161)"/>
<path d="M20 10C16.13 10 13 13.13 13 17C13 22.25 20 30 20 30C20 30 27 22.25 27 17C27 13.13 23.87 10 20 10ZM20 19.5C18.62 19.5 17.5 18.38 17.5 17C17.5 15.62 18.62 14.5 20 14.5C21.38 14.5 22.5 15.62 22.5 17C22.5 18.38 21.38 19.5 20 19.5Z" fill="white"/>
<defs>
<linearGradient id="paint0_linear_50433_37161" x1="0" y1="0" x2="42.8045" y2="3.26814" gradientUnits="userSpaceOnUse">
<stop stop-color="#FFD036"/>
<stop offset="1" stop-color="#FFA43C"/>
</linearGradient>
</defs>
</svg>
