<svg width="25" height="24" viewBox="0 0 25 24" fill="none" xmlns="http://www.w3.org/2000/svg">
<path d="M17.7411 2.84004L4.56549 7.23191C4.04631 7.40602 3.59346 7.73602 3.26869 8.17692C2.94392 8.61781 2.76303 9.14814 2.75068 9.6956C2.73833 10.2431 2.89512 10.781 3.19969 11.2361C3.50425 11.6912 3.94175 12.0413 4.45256 12.2386L9.32752 14.102C9.44314 14.1493 9.54819 14.2192 9.63652 14.3075C9.72485 14.3958 9.7947 14.5009 9.842 14.6165L11.7054 19.4915C11.8644 19.9056 12.1243 20.2734 12.4616 20.5614C12.7989 20.8495 13.2029 21.0487 13.6367 21.141C14.0706 21.2333 14.5207 21.2156 14.946 21.0897C15.3713 20.9638 15.7584 20.7336 16.0722 20.42C16.363 20.1233 16.5838 19.7653 16.7184 19.3723L21.1103 6.19668C21.2651 5.72838 21.2868 5.22626 21.1728 4.74636C21.0589 4.26645 20.8139 3.82763 20.4652 3.47886C20.1164 3.13009 19.6776 2.88508 19.1977 2.77118C18.7178 2.65727 18.2156 2.67894 17.7473 2.83377L17.7411 2.84004ZM19.4225 5.63829L15.0307 18.8139C14.9707 18.9846 14.86 19.1329 14.7133 19.2389C14.5667 19.3449 14.3912 19.4036 14.2102 19.407C14.0293 19.4104 13.8517 19.3584 13.7012 19.258C13.5506 19.1576 13.4344 19.0136 13.368 18.8452L11.4984 13.9765C11.4728 13.9121 11.4434 13.8493 11.4105 13.7883L15.7334 9.46548C15.8998 9.29908 15.9932 9.0734 15.9932 8.83807C15.9932 8.60275 15.8998 8.37706 15.7334 8.21066C15.567 8.04426 15.3413 7.95078 15.106 7.95078C14.8706 7.95078 14.6449 8.04426 14.4785 8.21066L10.1557 12.5335C10.0947 12.5006 10.0319 12.4712 9.96748 12.4457L5.09879 10.576C4.93045 10.5096 4.78642 10.3934 4.68601 10.2429C4.58561 10.0923 4.53363 9.9147 4.53704 9.73378C4.54046 9.55287 4.5991 9.37732 4.70511 9.23068C4.81112 9.08404 4.95943 8.97332 5.13016 8.91336L18.3057 4.5215C18.4612 4.47138 18.6274 4.46513 18.7861 4.50342C18.9449 4.54172 19.09 4.62309 19.2055 4.73856C19.3209 4.85403 19.4023 4.99913 19.4406 5.15788C19.4789 5.31663 19.4726 5.48287 19.4225 5.63829Z" fill="#363330"/>
</svg>
