<svg width="40" height="40" viewBox="0 0 40 40" fill="none" xmlns="http://www.w3.org/2000/svg">
<rect width="40" height="40" rx="14" fill="#EAE9E6"/>
<path d="M29.7204 16.8778L22.2205 10.2113C21.9756 9.99297 21.6239 9.93797 21.3256 10.0738C21.0256 10.208 20.8331 10.5055 20.8331 10.8338V13.5062C18.3298 14.1779 10 17.3045 10 29.1667C10 29.5658 10.2833 29.91 10.6758 29.985C10.7291 29.995 10.7816 30 10.8333 30C11.1683 30 11.4783 29.7975 11.6066 29.4758C14.0774 23.2985 18.894 22.0094 20.8322 21.7402V24.1668C20.8322 24.4951 21.0247 24.7926 21.3239 24.9268C21.4347 24.9768 21.5506 25.0001 21.6664 25.0001C21.8664 25.0001 22.0647 24.9276 22.2205 24.7893L29.7204 18.1228C29.8979 17.9653 29.9995 17.7378 29.9995 17.5003C29.9995 17.2628 29.8979 17.0353 29.7204 16.8778Z" fill="#363330"/>
</svg>
