<svg width="34" height="34" viewBox="0 0 34 34" fill="none" xmlns="http://www.w3.org/2000/svg">
<rect width="34" height="34" rx="10" fill="#EAE9E6"/>
<path d="M23.6841 24.7102H10.315C9.79681 24.7116 9.2958 24.5245 8.90546 24.1837C8.51511 23.8429 8.2621 23.3717 8.19363 22.858L6.74521 12.1679C6.70924 11.9054 6.75548 11.6382 6.87757 11.4031C6.99966 11.168 7.1916 10.9765 7.42699 10.855C7.66237 10.7334 7.92964 10.6878 8.19202 10.7243C8.45441 10.7609 8.69902 10.8778 8.89221 11.0591L11.2828 13.2702C11.4091 13.3923 11.5592 13.4872 11.7238 13.5489C11.8884 13.6105 12.0638 13.6377 12.2393 13.6287C12.4149 13.6197 12.5866 13.5747 12.744 13.4965C12.9014 13.4182 13.041 13.3085 13.1542 13.1741L16.0126 9.80296C16.1329 9.66004 16.283 9.54515 16.4524 9.46633C16.6218 9.38752 16.8063 9.34668 16.9931 9.34668C17.18 9.34668 17.3645 9.38752 17.5339 9.46633C17.7033 9.54515 17.8534 9.66004 17.9737 9.80296L20.8449 13.1741C20.9571 13.3064 21.0949 13.4147 21.2501 13.4922C21.4052 13.5697 21.5745 13.615 21.7477 13.6251C21.9209 13.6353 22.0943 13.6103 22.2575 13.5515C22.4207 13.4926 22.5703 13.4013 22.6971 13.283L25.0877 11.0719C25.279 10.8844 25.5242 10.7616 25.7889 10.7206C26.0536 10.6797 26.3245 10.7227 26.5635 10.8436C26.8025 10.9645 26.9977 11.1573 27.1215 11.3948C27.2453 11.6323 27.2916 11.9027 27.2539 12.1679L25.8055 22.8516C25.7384 23.3664 25.486 23.8391 25.0956 24.1813C24.7051 24.5234 24.2033 24.7114 23.6841 24.7102Z" fill="#363330"/>
</svg>
