<svg width="34" height="34" viewBox="0 0 34 34" fill="none" xmlns="http://www.w3.org/2000/svg">
<rect width="34" height="34" rx="10" fill="#EAE9E6"/>
<path d="M13.7964 8.63347C13.7964 8.22806 13.4677 7.89941 13.0623 7.89941C12.6569 7.89941 12.3283 8.22806 12.3283 8.63347V9.85689H11.1049C9.61837 9.85689 8.41333 11.0619 8.41333 12.5484V13.7718H25.5413V12.5484C25.5413 11.0619 24.3362 9.85689 22.8497 9.85689H21.6263V8.63347C21.6263 8.22806 21.2976 7.89941 20.8922 7.89941C20.4869 7.89941 20.1582 8.22806 20.1582 8.63347V9.85689H13.7964V8.63347Z" fill="#363330"/>
<path fill-rule="evenodd" clip-rule="evenodd" d="M8.41333 23.3145V15.24H25.5413V23.3145C25.5413 24.8011 24.3362 26.0061 22.8497 26.0061H11.1049C9.61837 26.0061 8.41333 24.8011 8.41333 23.3145ZM17.7113 17.9315C17.7113 17.5261 17.3827 17.1974 16.9773 17.1974C16.5719 17.1974 16.2432 17.5261 16.2432 17.9315V19.1549H15.0198C14.6144 19.1549 14.2858 19.4836 14.2858 19.889C14.2858 20.2944 14.6144 20.623 15.0198 20.623H16.2432V21.8464C16.2432 22.2518 16.5719 22.5805 16.9773 22.5805C17.3827 22.5805 17.7113 22.2518 17.7113 21.8464V20.623H18.9348C19.3402 20.623 19.6688 20.2944 19.6688 19.889C19.6688 19.4836 19.3402 19.1549 18.9348 19.1549H17.7113V17.9315Z" fill="#363330"/>
</svg>
