<svg width="25" height="24" viewBox="0 0 25 24" fill="none" xmlns="http://www.w3.org/2000/svg">
<g clip-path="url(#clip0_51374_17231)">
<path d="M13.54 9.29018L9.54 13.2902C9.44627 13.3831 9.37188 13.4937 9.32111 13.6156C9.27034 13.7375 9.2442 13.8682 9.2442 14.0002C9.2442 14.1322 9.27034 14.2629 9.32111 14.3848C9.37188 14.5066 9.44627 14.6172 9.54 14.7102C9.63296 14.8039 9.74356 14.8783 9.86542 14.9291C9.98728 14.9798 10.118 15.006 10.25 15.006C10.382 15.006 10.5127 14.9798 10.6346 14.9291C10.7564 14.8783 10.867 14.8039 10.96 14.7102L14.96 10.7102C15.1483 10.5219 15.2541 10.2665 15.2541 10.0002C15.2541 9.73388 15.1483 9.47849 14.96 9.29018C14.7717 9.10188 14.5163 8.99609 14.25 8.99609C13.9837 8.99609 13.7283 9.10188 13.54 9.29018Z" fill="#363330"/>
<path d="M12.53 17.3995L11.25 18.6695C10.5314 19.41 9.56544 19.86 8.53629 19.9338C7.50714 20.0076 6.48684 19.6999 5.67 19.0695C5.23827 18.7138 4.88597 18.2714 4.63584 17.771C4.38571 17.2707 4.24333 16.7234 4.21788 16.1645C4.19244 15.6057 4.2845 15.0477 4.48812 14.5267C4.69174 14.0056 5.00239 13.5331 5.4 13.1395L6.82 11.7095C6.91373 11.6166 6.98812 11.506 7.03889 11.3841C7.08966 11.2623 7.1158 11.1316 7.1158 10.9995C7.1158 10.8675 7.08966 10.7368 7.03889 10.615C6.98812 10.4931 6.91373 10.3825 6.82 10.2895C6.72704 10.1958 6.61644 10.1214 6.49458 10.0707C6.37272 10.0199 6.24201 9.99375 6.11 9.99375C5.97799 9.99375 5.84728 10.0199 5.72542 10.0707C5.60356 10.1214 5.49296 10.1958 5.4 10.2895L4.13 11.5695C3.06016 12.6056 2.40259 13.9946 2.27937 15.4787C2.15615 16.9629 2.57565 18.4413 3.46 19.6395C3.98488 20.3205 4.64864 20.8819 5.40719 21.2866C6.16574 21.6913 7.00171 21.9299 7.85958 21.9867C8.71745 22.0434 9.57757 21.917 10.3828 21.6157C11.1881 21.3145 11.92 20.8454 12.53 20.2395L13.95 18.8195C14.1383 18.6312 14.2441 18.3759 14.2441 18.1095C14.2441 17.8432 14.1383 17.5879 13.95 17.3995C13.7617 17.2112 13.5063 17.1055 13.24 17.1055C12.9737 17.1055 12.7183 17.2112 12.53 17.3995ZM19.91 3.21955C18.7035 2.32601 17.213 1.90224 15.7168 2.02737C14.2207 2.15251 12.8213 2.818 11.78 3.89955L10.7 4.99955C10.5766 5.08929 10.4733 5.20395 10.397 5.3361C10.3207 5.46826 10.273 5.61497 10.257 5.76674C10.2409 5.91851 10.257 6.07195 10.304 6.21714C10.351 6.36232 10.428 6.49601 10.53 6.60955C10.623 6.70328 10.7336 6.77767 10.8554 6.82844C10.9773 6.87921 11.108 6.90535 11.24 6.90535C11.372 6.90535 11.5027 6.87921 11.6246 6.82844C11.7464 6.77767 11.857 6.70328 11.95 6.60955L13.25 5.29955C13.9646 4.55587 14.9294 4.10338 15.9582 4.02951C16.9869 3.95563 18.0065 4.26561 18.82 4.89955C19.2549 5.25535 19.61 5.6988 19.8622 6.20101C20.1143 6.70322 20.2577 7.25292 20.2832 7.81428C20.3087 8.37564 20.2156 8.93607 20.01 9.45905C19.8044 9.98202 19.4909 10.4558 19.09 10.8495L17.67 12.2795C17.5763 12.3725 17.5019 12.4831 17.4511 12.605C17.4003 12.7268 17.3742 12.8575 17.3742 12.9895C17.3742 13.1216 17.4003 13.2523 17.4511 13.3741C17.5019 13.496 17.5763 13.6066 17.67 13.6995C17.763 13.7933 17.8736 13.8677 17.9954 13.9184C18.1173 13.9692 18.248 13.9953 18.38 13.9953C18.512 13.9953 18.6427 13.9692 18.7646 13.9184C18.8864 13.8677 18.997 13.7933 19.09 13.6995L20.51 12.2795C21.1142 11.6697 21.5818 10.9384 21.8821 10.1341C22.1823 9.32982 22.3082 8.47095 22.2515 7.61435C22.1947 6.75776 21.9567 5.92299 21.553 5.16534C21.1493 4.40769 20.5893 3.74445 19.91 3.21955Z" fill="#363330"/>
</g>
<defs>
<clipPath id="clip0_51374_17231">
<rect width="24" height="24" fill="white" transform="translate(0.25)"/>
</clipPath>
</defs>
</svg>
