<svg width="32" height="32" viewBox="0 0 32 32" fill="none" xmlns="http://www.w3.org/2000/svg">
<path fill-rule="evenodd" clip-rule="evenodd" d="M9.69004 6.21124C13.8888 5.84625 18.1112 5.84625 22.31 6.21124L24.3236 6.38628C26.2504 6.55377 27.8113 8.01997 28.0989 9.93249C28.7037 13.9548 28.7037 18.0449 28.0989 22.0672C28.046 22.419 27.95 22.7558 27.8165 23.0721C27.728 23.2819 27.455 23.3137 27.3018 23.1453L21.4066 16.6605C21.1402 16.3675 20.7261 16.2593 20.3504 16.3845L16.976 17.5093L12.0807 12.0021C11.8978 11.7963 11.638 11.675 11.3627 11.6669C11.0874 11.6588 10.821 11.7647 10.6262 11.9594L4.07406 18.5116C3.8724 18.7132 3.52848 18.5849 3.5124 18.3001C3.35476 15.5083 3.48434 12.7043 3.90115 9.93249C4.18875 8.01997 5.74964 6.55377 7.6764 6.38628L9.69004 6.21124ZM18.6667 11.9998C18.6667 10.8953 19.5621 9.99984 20.6667 9.99984C21.7712 9.99984 22.6667 10.8953 22.6667 11.9998C22.6667 13.1044 21.7712 13.9998 20.6667 13.9998C19.5621 13.9998 18.6667 13.1044 18.6667 11.9998Z" fill="#8C8A87"/>
<path d="M3.94845 21.4656C3.87464 21.5394 3.83958 21.6435 3.85428 21.7469C3.86948 21.8537 3.8851 21.9605 3.90115 22.0672C4.18875 23.9797 5.74964 25.4459 7.6764 25.6134L9.69004 25.7884C13.8888 26.1534 18.1113 26.1534 22.31 25.7884L24.3236 25.6134C24.8898 25.5642 25.4244 25.4028 25.9044 25.1509C26.0862 25.0555 26.1169 24.815 25.9787 24.663L20.511 18.6485C20.4222 18.5509 20.2841 18.5148 20.1589 18.5565L16.9829 19.6152C16.6034 19.7417 16.185 19.6299 15.9193 19.3309L11.5254 14.3878C11.398 14.2444 11.1762 14.2379 11.0405 14.3735L3.94845 21.4656Z" fill="#8C8A87"/>
</svg>
