<svg width="38" height="38" viewBox="0 0 38 38" fill="none" xmlns="http://www.w3.org/2000/svg">
<rect y="4" width="34" height="34" rx="10" fill="#EAE9E6"/>
<path d="M17.1966 30.1667C17.1966 30.0445 17.1355 29.9834 17.0133 29.9834C16.5626 29.9834 16.1749 29.8211 15.8503 29.4964C15.5256 29.1718 15.3633 28.7841 15.3633 28.3334C15.3633 28.2112 15.3022 28.1501 15.18 28.1501C15.0578 28.1501 14.9966 28.2112 14.9966 28.3334C14.9966 28.891 15.1933 29.3666 15.5868 29.76C15.9802 30.1534 16.4557 30.3501 17.0133 30.3501C17.1355 30.3501 17.1966 30.289 17.1966 30.1667ZM26.5466 26.8667C26.5466 27.264 26.4015 27.6077 26.1112 27.898C25.821 28.1883 25.4772 28.3334 25.08 28.3334H19.9466C19.9466 29.1431 19.6602 29.8344 19.0873 30.4074C18.5144 30.9803 17.823 31.2667 17.0133 31.2667C16.2036 31.2667 15.5123 30.9803 14.9394 30.4074C14.3664 29.8344 14.08 29.1431 14.08 28.3334H8.94665C8.54942 28.3334 8.20567 28.1883 7.9154 27.898C7.62512 27.6077 7.47998 27.264 7.47998 26.8667C7.86192 26.5459 8.20949 26.2098 8.52269 25.8584C8.83588 25.507 9.16054 25.0506 9.49665 24.4891C9.83276 23.9277 10.1173 23.3223 10.3503 22.673C10.5833 22.0237 10.7743 21.2369 10.9232 20.3126C11.0722 19.3883 11.1466 18.3952 11.1466 17.3334C11.1466 16.1723 11.5935 15.0933 12.4873 14.0964C13.381 13.0995 14.5536 12.4942 16.005 12.2803C15.9439 12.1351 15.9133 11.9862 15.9133 11.8334C15.9133 11.5278 16.0203 11.2681 16.2341 11.0542C16.448 10.8403 16.7078 10.7334 17.0133 10.7334C17.3189 10.7334 17.5786 10.8403 17.7925 11.0542C18.0064 11.2681 18.1133 11.5278 18.1133 11.8334C18.1133 11.9862 18.0828 12.1351 18.0216 12.2803C19.473 12.4942 20.6456 13.0995 21.5394 14.0964C22.4331 15.0933 22.88 16.1723 22.88 17.3334C22.88 18.3952 22.9545 19.3883 23.1034 20.3126C23.2524 21.2369 23.4433 22.0237 23.6763 22.673C23.9093 23.3223 24.1939 23.9277 24.53 24.4891C24.8661 25.0506 25.1907 25.507 25.5039 25.8584C25.8171 26.2098 26.1647 26.5459 26.5466 26.8667Z" fill="#363330"/>
<rect x="24.8" y="0.8" width="12.4" height="12.4" rx="6.2" fill="#FFA43C"/>
<rect x="24.8" y="0.8" width="12.4" height="12.4" rx="6.2" stroke="white" stroke-width="1.6"/>
</svg>
