<svg width="16" height="17" viewBox="0 0 16 17" fill="none" xmlns="http://www.w3.org/2000/svg">
<path d="M7.99996 15.8327L7.59996 15.366C7.39996 15.166 2.79996 10.0327 2.79996 6.36602C2.79996 3.49935 5.13329 1.16602 7.99996 1.16602C10.8666 1.16602 13.2 3.49935 13.2 6.36602C13.2 10.0327 8.59996 15.166 8.39996 15.366L7.99996 15.8327ZM7.99996 2.23268C5.73329 2.23268 3.86662 4.09935 3.86662 6.36602C3.86662 9.03268 6.86662 12.8993 7.99996 14.166C9.13329 12.8327 12.1333 8.96602 12.1333 6.36602C12.1333 4.09935 10.2666 2.23268 7.99996 2.23268ZM7.99996 8.56602C6.79996 8.56602 5.79996 7.56602 5.79996 6.36602C5.79996 5.16602 6.79996 4.16602 7.99996 4.16602C9.19996 4.16602 10.2 5.16602 10.2 6.36602C10.2 7.56602 9.19996 8.56602 7.99996 8.56602ZM7.99996 5.23268C7.39996 5.23268 6.86662 5.76602 6.86662 6.36602C6.86662 6.96602 7.39996 7.49935 7.99996 7.49935C8.59996 7.49935 9.13329 6.96602 9.13329 6.36602C9.13329 5.76602 8.59996 5.23268 7.99996 5.23268Z" fill="#8C8A87"/>
</svg>
