<svg width="34" height="34" viewBox="0 0 34 34" fill="none" xmlns="http://www.w3.org/2000/svg">
<rect width="34" height="34" rx="10" fill="white"/>
<path d="M22.6 20.8093C21.8906 20.8093 21.256 21.0893 20.7706 21.528L14.116 17.6546C14.1626 17.44 14.2 17.2253 14.2 17.0013C14.2 16.7773 14.1626 16.5626 14.116 16.348L20.696 12.512C21.2 12.9786 21.8626 13.268 22.6 13.268C24.1493 13.268 25.4 12.0173 25.4 10.468C25.4 8.91864 24.1493 7.66797 22.6 7.66797C21.0506 7.66797 19.8 8.91864 19.8 10.468C19.8 10.692 19.8373 10.9066 19.884 11.1213L13.304 14.9573C12.8 14.4906 12.1373 14.2013 11.4 14.2013C9.85064 14.2013 8.59998 15.452 8.59998 17.0013C8.59998 18.5506 9.85064 19.8013 11.4 19.8013C12.1373 19.8013 12.8 19.512 13.304 19.0453L19.9493 22.928C19.9026 23.124 19.8746 23.3293 19.8746 23.5346C19.8746 25.0373 21.0973 26.26 22.6 26.26C24.1026 26.26 25.3253 25.0373 25.3253 23.5346C25.3253 22.032 24.1026 20.8093 22.6 20.8093Z" fill="#363330"/>
</svg>
