<svg width="17" height="21" viewBox="0 0 17 21" fill="none" xmlns="http://www.w3.org/2000/svg">
<g clip-path="url(#clip0_50436_16911)">
<path d="M13.7803 11.3703C13.8088 14.4667 16.4705 15.4971 16.5 15.5102C16.4775 15.5829 16.0747 16.9786 15.0977 18.4203C14.2531 19.6668 13.3765 20.9087 11.9956 20.9344C10.6388 20.9596 10.2025 20.1219 8.6512 20.1219C7.10041 20.1219 6.61566 20.9087 5.33125 20.9596C3.99835 21.0105 2.98337 19.6118 2.13175 18.3699C0.391572 15.8296 -0.938284 11.1917 0.847376 8.06095C1.73445 6.50623 3.31973 5.52172 5.0404 5.49648C6.34927 5.47127 7.58469 6.3856 8.38482 6.3856C9.18444 6.3856 10.6857 5.28603 12.264 5.44752C12.9247 5.47529 14.7793 5.717 15.9702 7.47712C15.8743 7.53718 13.7573 8.78157 13.7803 11.3703M11.2303 3.7669C11.9379 2.902 12.4142 1.69799 12.2842 0.5C11.2642 0.541394 10.0308 1.18631 9.29917 2.05073C8.64349 2.81622 8.06926 4.04143 8.2242 5.2157C9.36112 5.30452 10.5226 4.63235 11.2303 3.7669" fill="#FFA43C"/>
</g>
<defs>
<clipPath id="clip0_50436_16911">
<rect width="16.5" height="20.5" fill="white" transform="translate(0 0.5)"/>
</clipPath>
</defs>
</svg>
