<svg width="34" height="34" viewBox="0 0 34 34" fill="none" xmlns="http://www.w3.org/2000/svg">
<path d="M8.75 14.4391V23.6596C8.75 24.7913 9.66738 25.7087 10.799 25.7087H23.0931C24.2248 25.7087 25.1422 24.7913 25.1422 23.6596V14.4391M8.75 14.4391V12.39C8.75 11.2584 9.66738 10.341 10.799 10.341H12.848M8.75 14.4391H25.1422M25.1422 14.4391V12.39C25.1422 11.2584 24.2248 10.341 23.0931 10.341H21.0441M12.848 8.29199V10.341M12.848 10.341H21.0441M21.0441 8.29199V10.341M16.9461 22.1229V20.0739M16.9461 20.0739V18.0248M16.9461 20.0739H18.9951M16.9461 20.0739H14.8971" stroke="#686664" stroke-width="1.5" stroke-linecap="round" stroke-linejoin="round"/>
<rect x="0.65" y="0.65" width="32.7" height="32.7" rx="16.35" stroke="#686664" stroke-width="1.3"/>
</svg>
