<svg width="24" height="24" viewBox="0 0 24 24" fill="none" xmlns="http://www.w3.org/2000/svg">
<path d="M21 5.74483H17.685C17.55 5.74483 17.4225 5.66984 17.355 5.54987L16.44 3.88484C15.975 3.04484 15.0975 2.52734 14.1375 2.52734H9.86252C8.9025 2.52734 8.02501 3.04484 7.56001 3.88484L6.64499 5.54987C6.57752 5.66985 6.44999 5.74483 6.31499 5.74483H3C1.55251 5.74483 0.375 6.92234 0.375 8.36983V18.8474C0.375 20.2948 1.55251 21.4724 3 21.4724H21C22.4475 21.4724 23.625 20.2948 23.625 18.8474V8.36983C23.625 6.92234 22.4475 5.74483 21 5.74483ZM12 18.4799C9.31499 18.4799 7.125 16.2973 7.125 13.6049C7.125 10.9198 9.31499 8.72986 12 8.72986C14.685 8.72986 16.875 10.9198 16.875 13.6049C16.875 16.2973 14.685 18.4799 12 18.4799Z" fill="#8C8A87"/>
<path d="M12 16.2305C13.4497 16.2305 14.625 15.0552 14.625 13.6055C14.625 12.1557 13.4497 10.9805 12 10.9805C10.5503 10.9805 9.375 12.1557 9.375 13.6055C9.375 15.0552 10.5503 16.2305 12 16.2305Z" fill="#8C8A87"/>
</svg>
