<svg width="12" height="8" viewBox="0 0 12 8" fill="none" xmlns="http://www.w3.org/2000/svg">
<path d="M9.47657 8.00041H2.52324C2.25373 8.00116 1.99315 7.90382 1.79013 7.72656C1.58711 7.5493 1.45552 7.30423 1.41991 7.03708L0.666573 1.47708C0.647867 1.34057 0.671918 1.20162 0.735418 1.07933C0.798918 0.957053 0.898746 0.85745 1.02117 0.794228C1.1436 0.731005 1.2826 0.707269 1.41907 0.726284C1.55554 0.745299 1.68276 0.806131 1.78324 0.900412L3.02657 2.05041C3.09229 2.11393 3.17037 2.16327 3.25596 2.19534C3.34155 2.22741 3.43282 2.24154 3.5241 2.23685C3.61538 2.23217 3.70472 2.20876 3.78658 2.16808C3.86843 2.12741 3.94104 2.07033 3.99991 2.00041L5.48657 0.247079C5.54915 0.172746 5.62722 0.112992 5.71532 0.0719986C5.80341 0.0310057 5.89941 0.00976562 5.99657 0.00976562C6.09374 0.00976562 6.18973 0.0310057 6.27783 0.0719986C6.36592 0.112992 6.444 0.172746 6.50657 0.247079L7.99991 2.00041C8.05822 2.06925 8.12991 2.12554 8.21061 2.16587C8.29132 2.20619 8.37937 2.22972 8.46944 2.23501C8.55951 2.24031 8.64971 2.22727 8.73459 2.19669C8.81947 2.1661 8.89725 2.11861 8.96324 2.05708L10.2066 0.907079C10.3061 0.809563 10.4336 0.745667 10.5713 0.724367C10.709 0.703068 10.8499 0.725435 10.9742 0.788327C11.0985 0.851218 11.2 0.951473 11.2644 1.07501C11.3288 1.19854 11.3529 1.33915 11.3332 1.47708L10.5799 7.03374C10.545 7.3015 10.4138 7.54737 10.2107 7.72531C10.0076 7.90324 9.74659 8.00105 9.47657 8.00041Z" fill="url(#paint0_linear_51393_10585)"/>
<defs>
<linearGradient id="paint0_linear_51393_10585" x1="6.00014" y1="0.00976562" x2="6.00014" y2="8.00042" gradientUnits="userSpaceOnUse">
<stop stop-color="#FFD036"/>
<stop offset="1" stop-color="#FFA43C"/>
</linearGradient>
</defs>
</svg>
