<svg width="22" height="22" viewBox="0 0 22 22" fill="none" xmlns="http://www.w3.org/2000/svg">
<path d="M13.7845 3.27203C13.6798 3.16732 13.5378 3.1085 13.3897 3.1085C13.2416 3.1085 13.0996 3.16732 12.9949 3.27203L4.56855 11.6984C4.4984 11.7685 4.44821 11.8561 4.42314 11.9521L3.50648 15.4615C3.45638 15.6533 3.51172 15.8572 3.65188 15.9974C3.79204 16.1375 3.99601 16.1929 4.18779 16.1428L7.69718 15.2261C7.79316 15.201 7.88073 15.1509 7.95088 15.0807L16.3772 6.65436C16.5953 6.43631 16.5953 6.0828 16.3772 5.86475L13.7845 3.27203ZM3.66699 17.546C3.23207 17.546 2.87949 17.8986 2.87949 18.3335C2.87949 18.7684 3.23207 19.121 3.66699 19.121H17.417C17.8519 19.121 18.2045 18.7684 18.2045 18.3335C18.2045 17.8986 17.8519 17.546 17.417 17.546H3.66699Z" fill="#686664" stroke="#686664" stroke-width="0.2" stroke-linecap="round"/>
</svg>
