<svg width="22" height="22" viewBox="0 0 22 22" fill="none" xmlns="http://www.w3.org/2000/svg">
<path d="M13.0168 2.63525C11.8924 2.63525 10.8141 3.08192 10.019 3.877C9.22392 4.67208 8.77725 5.75043 8.77725 6.87484V9.23525H6.5085C6.39459 9.23525 6.30225 9.3276 6.30225 9.4415V12.5582C6.30225 12.6721 6.39459 12.7644 6.5085 12.7644H8.77725V19.1582C8.77725 19.2721 8.86959 19.3644 8.9835 19.3644H12.1002C12.2141 19.3644 12.3064 19.2721 12.3064 19.1582V12.7644H14.5953C14.6899 12.7644 14.7724 12.7 14.7954 12.6082L15.5745 9.49153C15.6071 9.36135 15.5086 9.23525 15.3744 9.23525H12.3064V6.87484C12.3064 6.68642 12.3813 6.50573 12.5145 6.3725C12.6477 6.23927 12.8284 6.16442 13.0168 6.16442H15.4002C15.5141 6.16442 15.6064 6.07208 15.6064 5.95817V2.8415C15.6064 2.7276 15.5141 2.63525 15.4002 2.63525H13.0168Z" fill="#FFA43C"/>
</svg>
