<svg width="16" height="17" viewBox="0 0 16 17" fill="none" xmlns="http://www.w3.org/2000/svg">
<path d="M8.00061 1.83301C4.32353 1.83301 1.33325 4.82398 1.33325 8.49968C1.33325 12.1754 4.32353 15.1663 8.00061 15.1663C11.6763 15.1663 14.6673 12.1754 14.6673 8.49968C14.6673 4.82398 11.6763 1.83301 8.00061 1.83301ZM13.6867 8.49968C13.6867 9.80037 13.2451 10.9997 12.5089 11.958C12.3006 11.7955 12.0791 11.3559 12.2874 10.9004C12.4978 10.442 12.5527 9.38093 12.5041 8.96773C12.4583 8.55523 12.2437 7.56148 11.661 7.55176C11.0791 7.54343 10.6798 7.35106 10.3339 6.66079C9.61659 5.22467 11.6805 4.94898 10.9631 4.15454C10.7624 3.93092 9.72492 5.07259 9.57284 3.55106C9.56311 3.44204 9.66659 3.27884 9.80617 3.1094C12.0589 3.86634 13.6867 5.9962 13.6867 8.49968ZM7.21936 2.86981C7.08325 3.13509 6.72422 3.24273 6.50617 3.44204C6.03117 3.8719 5.827 3.81217 5.57145 4.22467C5.31381 4.63717 4.48325 5.23092 4.48325 5.52954C4.48325 5.82815 4.9027 6.17954 5.11242 6.11148C5.32214 6.04204 5.87561 6.0462 6.20061 6.16009C6.52631 6.27537 8.91867 6.39065 8.15617 8.41287C7.9145 9.05592 6.85547 8.94759 6.57353 10.0122C6.53117 10.1684 6.38464 10.8358 6.37561 11.0538C6.35825 11.3913 6.6145 12.6636 6.28881 12.6636C5.96172 12.6636 5.08186 11.5254 5.08186 11.3191C5.08186 11.1129 4.85409 10.39 4.85409 9.77051C4.85409 9.15176 3.79992 9.16148 3.79992 8.33856C3.79992 7.5969 4.37145 7.22745 4.24297 6.8712C4.11728 6.51704 3.11311 6.50523 2.69436 6.46148C3.0605 5.51414 3.67297 4.68176 4.46847 4.05034C5.26397 3.41892 6.21364 3.01137 7.21936 2.86981ZM6.21172 13.8955C6.55339 13.715 6.58811 13.4816 6.89784 13.4698C7.252 13.4538 7.5402 13.3316 7.9395 13.2434C8.29367 13.1663 8.9277 12.8066 9.48534 12.7608C9.95617 12.7226 10.8846 12.7851 11.1346 13.2393C10.4178 13.7153 9.6019 14.0218 8.74892 14.1355C7.89593 14.2492 7.02826 14.1671 6.21172 13.8955Z" fill="#8C8A87"/>
</svg>
