<svg width="30" height="30" viewBox="0 0 30 30" fill="none" xmlns="http://www.w3.org/2000/svg">
<rect width="30" height="30" rx="8" fill="#E1E1E0"/>
<g clip-path="url(#clip0_50433_35613)">
<path d="M18.3333 14.166C19.7167 14.166 20.825 13.0493 20.825 11.666C20.825 10.2827 19.7167 9.16602 18.3333 9.16602C16.95 9.16602 15.8333 10.2827 15.8333 11.666C15.8333 13.0493 16.95 14.166 18.3333 14.166ZM11.6667 14.166C13.05 14.166 14.1583 13.0493 14.1583 11.666C14.1583 10.2827 13.05 9.16602 11.6667 9.16602C10.2833 9.16602 9.16666 10.2827 9.16666 11.666C9.16666 13.0493 10.2833 14.166 11.6667 14.166ZM11.6667 15.8327C9.72499 15.8327 5.83333 16.8077 5.83333 18.7493V19.9993C5.83333 20.4577 6.20833 20.8327 6.66666 20.8327H16.6667C17.125 20.8327 17.5 20.4577 17.5 19.9993V18.7493C17.5 16.8077 13.6083 15.8327 11.6667 15.8327ZM18.3333 15.8327C18.0917 15.8327 17.8167 15.8493 17.525 15.8743C17.5417 15.8827 17.55 15.8993 17.5583 15.9077C18.5083 16.5993 19.1667 17.5243 19.1667 18.7493V19.9993C19.1667 20.291 19.1083 20.5743 19.0167 20.8327H23.3333C23.7917 20.8327 24.1667 20.4577 24.1667 19.9993V18.7493C24.1667 16.8077 20.275 15.8327 18.3333 15.8327Z" fill="#686664"/>
</g>
<defs>
<clipPath id="clip0_50433_35613">
<rect width="20" height="20" fill="white" transform="translate(5 5)"/>
</clipPath>
</defs>
</svg>
