<svg width="36" height="36" viewBox="0 0 36 36" fill="none" xmlns="http://www.w3.org/2000/svg">
<g clip-path="url(#clip0_50433_36819)">
<path d="M19.6508 18.004L24.6669 12.9996C24.8866 12.7799 25.01 12.482 25.01 12.1713C25.01 11.8607 24.8866 11.5627 24.6669 11.3431C24.4473 11.1234 24.1493 11 23.8387 11C23.528 11 23.2301 11.1234 23.0104 11.3431L18.006 16.3592L13.0015 11.3431C12.7819 11.1234 12.484 11 12.1733 11C11.8627 11 11.5647 11.1234 11.3451 11.3431C11.1254 11.5627 11.002 11.8607 11.002 12.1713C11.002 12.482 11.1254 12.7799 11.3451 12.9996L16.3612 18.004L11.3451 23.0085C11.2357 23.1169 11.1489 23.2459 11.0897 23.3881C11.0305 23.5302 11 23.6827 11 23.8367C11 23.9907 11.0305 24.1432 11.0897 24.2853C11.1489 24.4275 11.2357 24.5565 11.3451 24.6649C11.4535 24.7743 11.5825 24.8611 11.7247 24.9203C11.8668 24.9795 12.0193 25.01 12.1733 25.01C12.3273 25.01 12.4798 24.9795 12.6219 24.9203C12.7641 24.8611 12.8931 24.7743 13.0015 24.6649L18.006 19.6488L23.0104 24.6649C23.1189 24.7743 23.2479 24.8611 23.3901 24.9203C23.5322 24.9795 23.6847 25.01 23.8387 25.01C23.9927 25.01 24.1452 24.9795 24.2873 24.9203C24.4295 24.8611 24.5585 24.7743 24.6669 24.6649C24.7763 24.5565 24.8631 24.4275 24.9223 24.2853C24.9815 24.1432 25.012 23.9907 25.012 23.8367C25.012 23.6827 24.9815 23.5302 24.9223 23.3881C24.8631 23.2459 24.7763 23.1169 24.6669 23.0085L19.6508 18.004Z" fill="#B9B8B6"/>
</g>
<rect x="0.5" y="0.5" width="35" height="35" rx="17.5" stroke="#B9B8B6"/>
<defs>
<clipPath id="clip0_50433_36819">
<rect width="24" height="24" fill="white" transform="translate(6 6)"/>
</clipPath>
</defs>
</svg>
