<svg width="144" height="184" viewBox="0 0 144 184" fill="none" xmlns="http://www.w3.org/2000/svg">
<rect width="144" height="184" rx="18" fill="#F1F0EE"/>
<path fill-rule="evenodd" clip-rule="evenodd" d="M65.69 67.2112C69.8888 66.8463 74.1112 66.8463 78.31 67.2112L80.3236 67.3863C82.2504 67.5538 83.8113 69.02 84.0989 70.9325C84.7037 74.9548 84.7037 79.0449 84.0989 83.0672C84.046 83.419 83.95 83.7558 83.8165 84.0721C83.728 84.2819 83.455 84.3137 83.3018 84.1453L77.4066 77.6605C77.1402 77.3675 76.7261 77.2593 76.3504 77.3845L72.976 78.5093L68.0807 73.0021C67.8978 72.7963 67.638 72.675 67.3627 72.6669C67.0874 72.6588 66.821 72.7647 66.6262 72.9594L60.0741 79.5116C59.8724 79.7132 59.5285 79.5849 59.5124 79.3001C59.3548 76.5083 59.4843 73.7043 59.9012 70.9325C60.1887 69.02 61.7496 67.5538 63.6764 67.3863L65.69 67.2112ZM74.6667 72.9998C74.6667 71.8953 75.5621 70.9998 76.6667 70.9998C77.7712 70.9998 78.6667 71.8953 78.6667 72.9998C78.6667 74.1044 77.7712 74.9998 76.6667 74.9998C75.5621 74.9998 74.6667 74.1044 74.6667 72.9998Z" fill="#8C8A87"/>
<path d="M59.9484 82.4656C59.8746 82.5394 59.8396 82.6435 59.8543 82.7469C59.8695 82.8537 59.8851 82.9605 59.9012 83.0672C60.1887 84.9797 61.7496 86.4459 63.6764 86.6134L65.69 86.7884C69.8888 87.1534 74.1113 87.1534 78.31 86.7884L80.3236 86.6134C80.8898 86.5642 81.4244 86.4028 81.9044 86.1509C82.0862 86.0555 82.1169 85.815 81.9787 85.663L76.511 79.6485C76.4222 79.5509 76.2841 79.5148 76.1589 79.5565L72.9829 80.6152C72.6034 80.7417 72.185 80.6299 71.9193 80.3309L67.5254 75.3878C67.398 75.2444 67.1762 75.2379 67.0405 75.3735L59.9484 82.4656Z" fill="#8C8A87"/>
<path d="M32.1659 117H30.781L34.7866 106.091H36.1503L40.156 117H38.771L35.5111 107.817H35.4259L32.1659 117ZM32.6773 112.739H38.2597V113.911H32.6773V112.739ZM44.7142 117.17C44.0324 117.17 43.4305 116.998 42.9085 116.654C42.3864 116.306 41.9781 115.816 41.6833 115.184C41.3886 114.548 41.2412 113.797 41.2412 112.93C41.2412 112.071 41.3886 111.325 41.6833 110.693C41.9781 110.061 42.3882 109.573 42.9138 109.228C43.4394 108.884 44.0466 108.712 44.7355 108.712C45.2682 108.712 45.689 108.8 45.998 108.978C46.3105 109.152 46.5484 109.351 46.7117 109.575C46.8786 109.795 47.0083 109.976 47.1006 110.118H47.2071V106.091H48.4642V117H47.2497V115.743H47.1006C47.0083 115.892 46.8769 116.08 46.7064 116.308C46.5359 116.531 46.2927 116.732 45.9766 116.909C45.6606 117.083 45.2398 117.17 44.7142 117.17ZM44.8847 116.041C45.3889 116.041 45.8151 115.91 46.1631 115.647C46.5111 115.381 46.7757 115.013 46.9568 114.544C47.1379 114.072 47.2284 113.527 47.2284 112.909C47.2284 112.298 47.1396 111.764 46.9621 111.306C46.7845 110.844 46.5217 110.485 46.1737 110.23C45.8257 109.971 45.396 109.841 44.8847 109.841C44.352 109.841 43.9081 109.978 43.553 110.251C43.2014 110.521 42.9369 110.888 42.7593 111.354C42.5853 111.815 42.4983 112.334 42.4983 112.909C42.4983 113.491 42.5871 114.021 42.7646 114.496C42.9458 114.969 43.2121 115.345 43.5636 115.626C43.9188 115.903 44.3591 116.041 44.8847 116.041ZM53.9706 117.17C53.2888 117.17 52.6869 116.998 52.1649 116.654C51.6429 116.306 51.2345 115.816 50.9397 115.184C50.645 114.548 50.4976 113.797 50.4976 112.93C50.4976 112.071 50.645 111.325 50.9397 110.693C51.2345 110.061 51.6446 109.573 52.1702 109.228C52.6958 108.884 53.303 108.712 53.9919 108.712C54.5246 108.712 54.9454 108.8 55.2544 108.978C55.5669 109.152 55.8048 109.351 55.9681 109.575C56.135 109.795 56.2647 109.976 56.357 110.118H56.4635V106.091H57.7206V117H56.5061V115.743H56.357C56.2647 115.892 56.1333 116.08 55.9628 116.308C55.7924 116.531 55.5491 116.732 55.2331 116.909C54.917 117.083 54.4962 117.17 53.9706 117.17ZM54.1411 116.041C54.6453 116.041 55.0715 115.91 55.4195 115.647C55.7675 115.381 56.0321 115.013 56.2132 114.544C56.3943 114.072 56.4848 113.527 56.4848 112.909C56.4848 112.298 56.396 111.764 56.2185 111.306C56.0409 110.844 55.7782 110.485 55.4301 110.23C55.0821 109.971 54.6524 109.841 54.1411 109.841C53.6084 109.841 53.1645 109.978 52.8094 110.251C52.4578 110.521 52.1933 110.888 52.0157 111.354C51.8417 111.815 51.7547 112.334 51.7547 112.909C51.7547 113.491 51.8435 114.021 52.021 114.496C52.2022 114.969 52.4685 115.345 52.8201 115.626C53.1752 115.903 53.6155 116.041 54.1411 116.041ZM64.2963 117V108.818H65.5534V117H64.2963ZM64.9355 107.455C64.6905 107.455 64.4792 107.371 64.3016 107.204C64.1276 107.037 64.0406 106.837 64.0406 106.602C64.0406 106.368 64.1276 106.167 64.3016 106C64.4792 105.833 64.6905 105.75 64.9355 105.75C65.1805 105.75 65.39 105.833 65.564 106C65.7416 106.167 65.8304 106.368 65.8304 106.602C65.8304 106.837 65.7416 107.037 65.564 107.204C65.39 107.371 65.1805 107.455 64.9355 107.455ZM67.7959 117V108.818H69.0104V110.097H69.1169C69.2873 109.66 69.5626 109.321 69.9425 109.079C70.3225 108.834 70.7788 108.712 71.3115 108.712C71.8513 108.712 72.3005 108.834 72.6591 109.079C73.0214 109.321 73.3037 109.66 73.5061 110.097H73.5913C73.8008 109.674 74.1151 109.338 74.5341 109.09C74.9532 108.838 75.4557 108.712 76.0416 108.712C76.7731 108.712 77.3715 108.941 77.8367 109.399C78.3019 109.853 78.5345 110.562 78.5345 111.524V117H77.2774V111.524C77.2774 110.92 77.1123 110.489 76.782 110.23C76.4518 109.971 76.0629 109.841 75.6155 109.841C75.0402 109.841 74.5945 110.015 74.2785 110.363C73.9624 110.707 73.8044 111.144 73.8044 111.673V117H72.526V111.396C72.526 110.931 72.3751 110.556 72.0732 110.272C71.7714 109.985 71.3825 109.841 70.9067 109.841C70.58 109.841 70.2746 109.928 69.9905 110.102C69.7099 110.276 69.4827 110.517 69.3086 110.826C69.1382 111.132 69.053 111.485 69.053 111.886V117H67.7959ZM83.1806 117.192C82.6622 117.192 82.1916 117.094 81.7691 116.899C81.3465 116.7 81.0109 116.414 80.7623 116.041C80.5137 115.665 80.3894 115.21 80.3894 114.678C80.3894 114.209 80.4818 113.829 80.6664 113.538C80.8511 113.243 81.0979 113.012 81.4068 112.845C81.7158 112.678 82.0567 112.554 82.4296 112.472C82.806 112.387 83.1842 112.32 83.5642 112.27C84.0613 112.206 84.4644 112.158 84.7733 112.126C85.0858 112.091 85.3131 112.032 85.4551 111.95C85.6007 111.869 85.6735 111.727 85.6735 111.524V111.482C85.6735 110.956 85.5297 110.548 85.2421 110.256C84.958 109.965 84.5265 109.82 83.9477 109.82C83.3475 109.82 82.877 109.951 82.5361 110.214C82.1952 110.477 81.9555 110.757 81.817 111.055L80.6238 110.629C80.8369 110.132 81.121 109.745 81.4761 109.468C81.8348 109.187 82.2254 108.992 82.648 108.882C83.0741 108.768 83.4931 108.712 83.9051 108.712C84.1679 108.712 84.4697 108.744 84.8106 108.808C85.1551 108.868 85.4871 108.994 85.8067 109.186C86.1299 109.377 86.398 109.667 86.611 110.054C86.8241 110.441 86.9306 110.96 86.9306 111.609V117H85.6735V115.892H85.6096C85.5244 116.07 85.3823 116.26 85.1835 116.462C84.9846 116.664 84.7201 116.837 84.3898 116.979C84.0595 117.121 83.6565 117.192 83.1806 117.192ZM83.3724 116.062C83.8696 116.062 84.2886 115.965 84.6295 115.77C84.974 115.574 85.2332 115.322 85.4072 115.013C85.5848 114.704 85.6735 114.379 85.6735 114.038V112.888C85.6203 112.952 85.5031 113.01 85.322 113.064C85.1444 113.113 84.9385 113.158 84.7041 113.197C84.4733 113.232 84.2478 113.264 84.0276 113.293C83.811 113.317 83.6352 113.339 83.5002 113.357C83.1735 113.399 82.8681 113.468 82.584 113.564C82.3035 113.657 82.0762 113.797 81.9022 113.985C81.7318 114.17 81.6465 114.422 81.6465 114.741C81.6465 115.178 81.8081 115.509 82.1313 115.732C82.458 115.952 82.8717 116.062 83.3724 116.062ZM92.4677 120.239C91.8604 120.239 91.3384 120.161 90.9016 120.004C90.4648 119.852 90.1008 119.649 89.8097 119.397C89.522 119.148 89.293 118.882 89.1225 118.598L90.1239 117.895C90.2376 118.044 90.3814 118.214 90.5554 118.406C90.7294 118.602 90.9673 118.77 91.2692 118.912C91.5746 119.058 91.9741 119.131 92.4677 119.131C93.1282 119.131 93.6733 118.971 94.103 118.651C94.5327 118.332 94.7475 117.831 94.7475 117.149V115.487H94.641C94.5486 115.636 94.4173 115.821 94.2468 116.041C94.0799 116.258 93.8384 116.451 93.5224 116.622C93.2099 116.789 92.7873 116.872 92.2546 116.872C91.5941 116.872 91.0011 116.716 90.4755 116.403C89.9535 116.091 89.5398 115.636 89.2344 115.04C88.9325 114.443 88.7816 113.719 88.7816 112.866C88.7816 112.028 88.929 111.299 89.2237 110.677C89.5185 110.052 89.9286 109.569 90.4542 109.228C90.9798 108.884 91.587 108.712 92.2759 108.712C92.8086 108.712 93.2312 108.8 93.5437 108.978C93.8597 109.152 94.1012 109.351 94.2681 109.575C94.4386 109.795 94.57 109.976 94.6623 110.118H94.7901V108.818H96.0046V117.234C96.0046 117.938 95.8448 118.509 95.5252 118.95C95.2092 119.393 94.783 119.718 94.2468 119.924C93.7141 120.134 93.1211 120.239 92.4677 120.239ZM92.4251 115.743C92.9293 115.743 93.3555 115.627 93.7035 115.397C94.0515 115.166 94.316 114.834 94.4972 114.401C94.6783 113.967 94.7688 113.449 94.7688 112.845C94.7688 112.256 94.68 111.735 94.5025 111.284C94.3249 110.833 94.0621 110.48 93.7141 110.224C93.3661 109.969 92.9364 109.841 92.4251 109.841C91.8924 109.841 91.4485 109.976 91.0934 110.246C90.7418 110.516 90.4773 110.878 90.2997 111.332C90.1257 111.787 90.0387 112.291 90.0387 112.845C90.0387 113.413 90.1275 113.916 90.305 114.353C90.4861 114.786 90.7525 115.127 91.104 115.375C91.4592 115.62 91.8995 115.743 92.4251 115.743ZM101.676 117.17C100.888 117.17 100.208 116.996 99.636 116.648C99.0678 116.297 98.6293 115.807 98.3203 115.178C98.0149 114.546 97.8622 113.811 97.8622 112.973C97.8622 112.135 98.0149 111.396 98.3203 110.757C98.6293 110.114 99.0589 109.614 99.6094 109.255C100.163 108.893 100.81 108.712 101.548 108.712C101.974 108.712 102.395 108.783 102.811 108.925C103.226 109.067 103.604 109.298 103.945 109.617C104.286 109.933 104.558 110.352 104.76 110.874C104.963 111.396 105.064 112.039 105.064 112.803V113.335H98.7571V112.249H103.786C103.786 111.787 103.693 111.375 103.509 111.013C103.327 110.651 103.068 110.365 102.731 110.155C102.397 109.946 102.003 109.841 101.548 109.841C101.048 109.841 100.614 109.965 100.249 110.214C99.8864 110.459 99.6076 110.778 99.4123 111.173C99.217 111.567 99.1193 111.989 99.1193 112.44V113.165C99.1193 113.783 99.2259 114.306 99.4389 114.736C99.6555 115.162 99.9556 115.487 100.339 115.711C100.723 115.931 101.168 116.041 101.676 116.041C102.006 116.041 102.305 115.995 102.571 115.903C102.841 115.807 103.074 115.665 103.269 115.477C103.464 115.285 103.615 115.047 103.722 114.763L104.936 115.104C104.808 115.516 104.593 115.878 104.292 116.19C103.99 116.499 103.617 116.741 103.173 116.915C102.729 117.085 102.23 117.17 101.676 117.17ZM112.712 110.651L111.582 110.97C111.511 110.782 111.407 110.599 111.268 110.422C111.133 110.24 110.949 110.091 110.714 109.974C110.48 109.857 110.18 109.798 109.814 109.798C109.313 109.798 108.896 109.914 108.562 110.145C108.232 110.372 108.067 110.661 108.067 111.013C108.067 111.325 108.18 111.572 108.408 111.753C108.635 111.934 108.99 112.085 109.473 112.206L110.688 112.504C111.419 112.682 111.964 112.953 112.323 113.319C112.681 113.681 112.861 114.148 112.861 114.72C112.861 115.189 112.726 115.608 112.456 115.977C112.19 116.347 111.817 116.638 111.337 116.851C110.858 117.064 110.3 117.17 109.665 117.17C108.83 117.17 108.14 116.989 107.593 116.627C107.046 116.265 106.7 115.736 106.554 115.04L107.747 114.741C107.861 115.182 108.076 115.512 108.392 115.732C108.711 115.952 109.129 116.062 109.643 116.062C110.229 116.062 110.695 115.938 111.039 115.69C111.387 115.437 111.561 115.136 111.561 114.784C111.561 114.5 111.462 114.262 111.263 114.07C111.064 113.875 110.759 113.729 110.347 113.634L108.983 113.314C108.234 113.136 107.683 112.861 107.332 112.488C106.984 112.112 106.81 111.641 106.81 111.077C106.81 110.615 106.939 110.207 107.199 109.852C107.461 109.496 107.818 109.218 108.269 109.015C108.724 108.813 109.239 108.712 109.814 108.712C110.624 108.712 111.259 108.889 111.721 109.244C112.186 109.599 112.516 110.068 112.712 110.651Z" fill="#8C8A87"/>
</svg>
