<svg width="20" height="20" viewBox="0 0 20 20" fill="none" xmlns="http://www.w3.org/2000/svg">
<rect width="20" height="20" rx="10" fill="#FFD036"/>
<g clip-path="url(#clip0_50881_8019)">
<path d="M5.3936 16.3427C4.81269 16.5863 4.68151 16.4364 4.81269 16.1178C4.88764 15.9055 5.18123 15.1934 5.69343 13.9816C4.80644 13.3195 4.2755 12.3638 4.1006 11.1145C3.78203 8.97822 4.11934 6.33599 6.59291 4.61199C9.06648 2.88798 12.7394 3.3752 14.3884 5.09921C16.1874 6.95438 16.9744 11.3956 14.0886 14.0753C12.1522 15.8617 9.88476 16.249 7.28626 15.2371C6.42426 15.8118 5.79337 16.1803 5.3936 16.3427Z" fill="white"/>
<path d="M12.5332 10.8518C12.2896 12.8569 11.2028 13.7376 9.55371 13.7376C8.32942 13.7251 7.40495 13.2192 6.78031 12.2197C6.70536 12.1448 6.64914 11.9949 6.64914 11.8262C6.74284 11.845 6.81779 11.6763 6.85527 11.6388C6.91149 11.6201 6.96771 11.6014 7.0614 11.5639C7.24879 11.8137 7.46742 12.0324 7.71727 12.2197C8.05458 12.4821 8.4481 12.6695 8.8791 12.7444C9.3101 12.8007 9.75984 12.7257 10.1721 12.5383C10.3595 12.4259 10.5469 12.2947 10.6968 12.1261C10.8467 11.9574 10.9592 11.7513 11.0341 11.5451C11.2028 11.1329 11.2402 10.7019 11.259 10.2896C11.2715 9.86486 11.2652 9.44635 11.2402 9.03409L11.184 8.43443C11.1653 8.2283 11.1465 8.02217 11.1465 7.81604C11.1465 7.62865 11.1653 7.42252 11.2028 7.23513C11.259 7.04773 11.3527 6.86034 11.4464 6.69169C11.3152 6.8416 11.184 7.01026 11.1091 7.19765C11.0154 7.40378 10.9779 7.60991 10.9592 7.81604C10.9217 8.2283 10.9404 8.64056 10.9404 9.05283C10.9404 9.44635 10.9217 9.85861 10.9029 10.2709C10.8842 10.6644 10.828 11.0579 10.6968 11.414C10.6343 11.5889 10.5469 11.7513 10.4345 11.9012C10.322 12.0386 10.1784 12.151 10.0035 12.2385C9.68489 12.4071 9.29136 12.5008 8.91658 12.4634C8.5418 12.4446 8.14827 12.2947 7.81097 12.0886C7.56111 11.9387 7.33 11.7575 7.11762 11.5451C7.1426 11.5326 7.16759 11.5202 7.19258 11.5077C7.37997 11.3952 7.41745 11.2453 7.45492 11.2266C7.47366 11.2078 7.47366 11.1891 7.47366 11.1516C8.12954 11.5264 9.27263 11.77 9.94724 11.1516C10.6406 10.5332 10.4345 8.69678 10.6218 7.72234C10.7905 6.74791 11.4464 6.80412 11.4838 6.65421C11.4838 6.56052 11.4839 6.33564 11.4651 6.16699C11.5588 6.16699 11.7275 6.16699 11.8774 6.20447C11.8774 6.31691 11.8586 6.46682 11.8774 6.54178C11.9523 6.82286 12.3084 6.9353 12.4583 7.38504C12.6457 7.92848 12.7581 8.99661 12.5332 10.8518Z" fill="#FFD036"/>
<path d="M7.06138 11.5641C6.96769 11.6016 6.91147 11.6203 6.85525 11.6391C6.81777 11.6766 6.74282 11.8452 6.64912 11.8265C6.62414 11.8265 6.59915 11.8015 6.57416 11.7515C6.44299 11.5266 6.51795 11.5266 6.5929 11.3767C6.64912 11.2268 6.89273 11.0956 7.04264 11.0207C7.1176 10.9645 7.30499 10.9645 7.39869 11.0207C7.43617 11.0394 7.47365 11.0956 7.47365 11.1519C7.47365 11.1893 7.47365 11.2081 7.45491 11.2268C7.41743 11.2455 7.37995 11.3955 7.19256 11.5079C7.16757 11.5204 7.14259 11.5329 7.1176 11.5454" fill="#904F1D"/>
<path d="M12.2709 6.12987C12.2334 6.336 12.1397 6.27979 11.9149 6.20483C11.9024 6.20483 11.8899 6.20483 11.8774 6.20483C11.7275 6.16735 11.5588 6.16735 11.4651 6.16735C11.4526 6.16735 11.4401 6.1736 11.4276 6.18609C11.2902 6.21108 11.1778 6.17984 11.0903 6.09239C10.9404 5.96122 10.8467 5.84879 10.8092 5.68013C10.7967 5.5552 10.8592 5.42403 10.9966 5.28661C11.1278 5.21165 12.1585 5.5677 12.3084 5.71761C12.4395 5.88626 12.2896 5.905 12.2709 6.12987Z" fill="#904F1D"/>
</g>
<defs>
<clipPath id="clip0_50881_8019">
<rect width="12" height="12.9265" fill="white" transform="translate(4 3.53711)"/>
</clipPath>
</defs>
</svg>
