<svg width="150" height="18" viewBox="0 0 150 18" fill="none" xmlns="http://www.w3.org/2000/svg">
<path d="M22 11.0408V10.0558L26.1253 9.5398V11.0408C26.1253 11.6349 26.3128 12.1196 26.6878 12.4948C27.0941 12.9013 27.5785 13.1046 28.141 13.1046C28.7348 13.1046 29.2192 12.9013 29.5942 12.4948C30.0005 12.1196 30.2037 11.6349 30.2037 11.0408V0.768555H34.3289V11.0408C34.3289 12.7606 33.7195 14.2147 32.5007 15.4029C31.3131 16.6225 29.8599 17.2322 28.141 17.2322C26.4534 17.2322 25.0002 16.6225 23.7814 15.4029C22.5938 14.2147 22 12.7606 22 11.0408Z" fill="#FFD036"/>
<path d="M40.4719 17.2322H36.3936V0.768555H40.4719V17.2322Z" fill="#FFD036"/>
<path fill-rule="evenodd" clip-rule="evenodd" d="M50.7896 17.2322C48.5082 17.2322 46.5706 16.4348 44.9767 14.8401C43.3516 13.214 42.5391 11.2753 42.5391 9.02385C42.5391 6.74113 43.3516 4.80239 44.9767 3.20762C46.5706 1.58158 48.5082 0.768555 50.7896 0.768555C53.0397 0.768555 54.9774 1.58158 56.6025 3.20762C58.1963 4.80239 58.9932 6.74113 58.9932 9.02385C58.9932 11.2753 58.1963 13.214 56.6025 14.8401C54.9774 16.4348 53.0397 17.2322 50.7896 17.2322ZM50.7896 13.1046C51.9147 13.1046 52.8835 12.7137 53.696 11.932C54.4773 11.1189 54.868 10.1496 54.868 9.02385C54.868 7.86686 54.4773 6.89748 53.696 6.11573C52.8835 5.30271 51.9147 4.8962 50.7896 4.8962C49.6333 4.8962 48.6645 5.30271 47.8832 6.11573C47.0706 6.89748 46.6643 7.86686 46.6643 9.02385C46.6643 10.1496 47.0706 11.1189 47.8832 11.932C48.6645 12.7137 49.6333 13.1046 50.7896 13.1046Z" fill="#FFD036"/>
<path d="M66.1449 9.07075C64.051 5.4747 62.3477 2.7073 61.0352 0.768555H65.8167C66.6293 2.01936 67.4262 3.25452 68.2075 4.47406C68.9888 3.25452 69.8014 2.01936 70.6452 0.768555H75.4267C74.1141 2.7073 72.3953 5.4747 70.2701 9.07075V17.2322H66.1449V9.07075Z" fill="#FFA43C"/>
<path fill-rule="evenodd" clip-rule="evenodd" d="M82.1792 17.2322C79.8978 17.2322 77.9602 16.4192 76.3664 14.7932C74.7725 13.1984 73.9756 11.2753 73.9756 9.02385C73.9756 6.74113 74.7725 4.80239 76.3664 3.20762C77.9602 1.58157 79.8978 0.768555 82.1792 0.768555C84.4606 0.768555 86.3983 1.58157 87.9921 3.20762C89.586 4.80239 90.3829 6.74113 90.3829 9.02385C90.3829 11.2753 89.586 13.1984 87.9921 14.7932C86.3983 16.4192 84.4606 17.2322 82.1792 17.2322ZM82.1792 13.1046C83.3043 13.1046 84.2731 12.7137 85.0857 11.932C85.8982 11.1189 86.3045 10.1496 86.3045 9.02385C86.3045 7.86686 85.8982 6.88185 85.0857 6.06883C84.2731 5.28707 83.3043 4.8962 82.1792 4.8962C81.0542 4.8962 80.0854 5.28707 79.2728 6.06883C78.4602 6.88185 78.054 7.86686 78.054 9.02385C78.054 10.1496 78.4602 11.1189 79.2728 11.932C80.0854 12.7137 81.0542 13.1046 82.1792 13.1046Z" fill="#FFA43C"/>
<path d="M92.4473 11.0408V0.768555H96.5725V11.0408C96.5725 11.6349 96.7757 12.1196 97.1819 12.4948C97.5882 12.9013 98.0726 13.1046 98.6352 13.1046C99.1977 13.1046 99.6821 12.9013 100.088 12.4948C100.495 12.1196 100.698 11.6349 100.698 11.0408V0.768555H104.776V11.0408C104.776 12.7606 104.182 14.2147 102.995 15.4029C101.776 16.6225 100.323 17.2322 98.6352 17.2322C96.9163 17.2322 95.4631 16.6225 94.2755 15.4029C93.0567 14.2147 92.4473 12.7606 92.4473 11.0408Z" fill="#FFA43C"/>
<path fill-rule="evenodd" clip-rule="evenodd" d="M115.07 17.2322C112.788 17.2322 110.851 16.4192 109.257 14.7932C107.632 13.1984 106.819 11.2597 106.819 8.97694C106.819 6.7255 107.632 4.78676 109.257 3.16071C110.851 1.56594 112.788 0.768555 115.07 0.768555C117.32 0.768555 119.242 1.56594 120.836 3.16071C122.461 4.78676 123.274 6.7255 123.274 8.97694C123.274 11.2597 122.461 13.1984 120.836 14.7932C119.242 16.4192 117.32 17.2322 115.07 17.2322ZM115.07 13.1046C116.195 13.1046 117.164 12.6981 117.976 11.8851C118.758 11.1033 119.148 10.1339 119.148 8.97694C119.148 7.85122 118.758 6.88185 117.976 6.06883C117.164 5.28708 116.195 4.8962 115.07 4.8962C113.914 4.8962 112.929 5.28708 112.117 6.06883C111.335 6.88185 110.945 7.85122 110.945 8.97694C110.945 10.1339 111.335 11.1033 112.117 11.8851C112.929 12.6981 113.914 13.1046 115.07 13.1046Z" fill="#FFA43C"/>
<path d="M125.343 11.0408V0.768555H129.421V11.0408C129.421 11.6036 129.624 12.0883 130.031 12.4948C130.437 12.9013 130.921 13.1046 131.484 13.1046C132.046 13.1046 132.531 12.9013 132.937 12.4948C133.343 12.0883 133.546 11.6036 133.546 11.0408V0.768555H137.672V11.0408C137.672 12.7606 137.062 14.2147 135.843 15.4029C134.656 16.6225 133.203 17.2322 131.484 17.2322C129.796 17.2322 128.343 16.6225 127.124 15.4029C125.937 14.2147 125.343 12.7606 125.343 11.0408Z" fill="#FFA43C"/>
<path d="M146.906 4.8962V17.2322H142.78V4.8962H139.733V0.768555H150V4.8962H146.906Z" fill="#FFA43C"/>
</svg>
