<svg width="24" height="24" viewBox="0 0 24 24" fill="none" xmlns="http://www.w3.org/2000/svg">
<path d="M17.7931 9.93114V7.44838C17.7931 5.91195 17.1828 4.43845 16.0964 3.35203C15.01 2.26562 13.5365 1.65527 12 1.65527C10.4636 1.65527 8.99011 2.26562 7.90369 3.35203C6.81727 4.43845 6.20693 5.91195 6.20693 7.44838V9.93114C5.76795 9.93114 5.34695 10.1055 5.03655 10.4159C4.72614 10.7263 4.55176 11.1473 4.55176 11.5863V20.6898C4.55176 21.1287 4.72614 21.5497 5.03655 21.8601C5.34695 22.1705 5.76795 22.3449 6.20693 22.3449H17.7931C18.2321 22.3449 18.6531 22.1705 18.9635 21.8601C19.2739 21.5497 19.4483 21.1287 19.4483 20.6898V11.5863C19.4483 11.1473 19.2739 10.7263 18.9635 10.4159C18.6531 10.1055 18.2321 9.93114 17.7931 9.93114ZM16.138 9.93114H7.8621V7.44838C7.8621 6.35093 8.29806 5.29843 9.07407 4.52242C9.85009 3.74641 10.9026 3.31045 12 3.31045C13.0975 3.31045 14.15 3.74641 14.926 4.52242C15.702 5.29843 16.138 6.35093 16.138 7.44838V9.93114Z" fill="#363330"/>
</svg>
