<svg width="20" height="20" viewBox="0 0 20 20" fill="none" xmlns="http://www.w3.org/2000/svg">
<g clip-path="url(#clip0_50828_9382)">
<path d="M9.31593 4.82233L10 5.62252L10.6841 4.82233C11.4275 3.95278 12.5723 3.4 13.75 3.4C15.8238 3.4 17.4334 5.00956 17.4334 7.08333C17.4334 8.3605 16.8662 9.59164 15.6834 11.0388C14.4905 12.4982 12.7674 14.065 10.6037 16.0292C10.6036 16.0293 10.6035 16.0294 10.6034 16.0294L10 16.5767L9.39661 16.0294C9.3965 16.0294 9.3964 16.0293 9.39629 16.0292C7.2326 14.065 5.50955 12.4982 4.31665 11.0388C3.13381 9.59164 2.56669 8.3605 2.56669 7.08333C2.56669 5.00956 4.17624 3.4 6.25002 3.4C7.42773 3.4 8.57255 3.95278 9.31593 4.82233Z" stroke="#EE6E85" stroke-width="1.8"/>
</g>
<defs>
<clipPath id="clip0_50828_9382">
<rect width="20" height="20" fill="white"/>
</clipPath>
</defs>
</svg>
