<svg width="24" height="24" viewBox="0 0 24 24" fill="none" xmlns="http://www.w3.org/2000/svg">
<path d="M4 10.5C2.89543 10.5 2 11.3954 2 12.5C2 13.6046 2.89543 14.5 4 14.5C5.10457 14.5 6 13.6046 6 12.5C6 11.3954 5.10457 10.5 4 10.5Z" fill="#363330"/>
<path d="M10 12.5C10 11.3954 10.8954 10.5 12 10.5C13.1046 10.5 14 11.3954 14 12.5C14 13.6046 13.1046 14.5 12 14.5C10.8954 14.5 10 13.6046 10 12.5Z" fill="#363330"/>
<path d="M18 12.5C18 11.3954 18.8954 10.5 20 10.5C21.1046 10.5 22 11.3954 22 12.5C22 13.6046 21.1046 14.5 20 14.5C18.8954 14.5 18 13.6046 18 12.5Z" fill="#363330"/>
</svg>
