<svg width="32" height="30" viewBox="0 0 32 30" fill="none" xmlns="http://www.w3.org/2000/svg">
<g filter="url(#filter0_d_50516_4532)">
<path d="M16.006 0.493652C23.106 0.493652 28.8122 6.2374 28.8122 13.3874C28.8122 20.4124 23.031 26.1312 15.8935 26.0937C8.85599 26.0562 3.16224 20.2999 3.19349 13.1624C3.22474 6.21865 8.99349 0.493652 16.006 0.493652ZM27.206 13.2812C27.1622 7.0499 22.1435 2.0499 15.9872 2.09365C9.75599 2.1374 4.76224 7.1499 4.79974 13.3124C4.84349 19.5374 9.86224 24.5437 16.0247 24.4937C22.256 24.4499 27.256 19.4374 27.206 13.2812Z" fill="#363330"/>
<path d="M22.1376 8.03133C22.1189 8.09383 22.0939 8.23758 22.0501 8.37508C21.1939 10.9501 20.3314 13.5188 19.4814 16.0938C19.3689 16.4438 19.1564 16.6501 18.8064 16.7626C16.2126 17.6251 13.6189 18.4876 11.0314 19.3563C10.6876 19.4688 10.3689 19.4563 10.1064 19.1876C9.85636 18.9313 9.83136 18.6251 9.94386 18.2876C10.8189 15.6688 11.6939 13.0438 12.5689 10.4251C12.6626 10.1313 12.8564 9.95008 13.1376 9.85633C15.7814 8.97508 18.4189 8.09383 21.0626 7.21883C21.6126 7.03133 22.1251 7.39383 22.1376 8.03133ZM11.9376 17.3501C12.0314 17.3251 12.0751 17.3188 12.1251 17.3063C14.0376 16.6688 15.9564 16.0376 17.8626 15.3876C17.9751 15.3501 18.0814 15.2063 18.1189 15.0876C18.7501 13.2251 19.3689 11.3626 19.9939 9.50008C20.0189 9.42508 20.0314 9.35008 20.0626 9.25008C19.9876 9.26883 19.9439 9.27508 19.9064 9.28758C17.9939 9.92508 16.0751 10.5563 14.1689 11.2063C14.0564 11.2438 13.9376 11.3813 13.9001 11.5001C13.5501 12.5251 13.2126 13.5501 12.8689 14.5751C12.5626 15.4813 12.2564 16.3938 11.9376 17.3501Z" fill="#363330"/>
</g>
<defs>
<filter id="filter0_d_50516_4532" x="-0.806641" y="0.493652" width="33.6191" height="33.6001" filterUnits="userSpaceOnUse" color-interpolation-filters="sRGB">
<feFlood flood-opacity="0" result="BackgroundImageFix"/>
<feColorMatrix in="SourceAlpha" type="matrix" values="0 0 0 0 0 0 0 0 0 0 0 0 0 0 0 0 0 0 127 0" result="hardAlpha"/>
<feOffset dy="4"/>
<feGaussianBlur stdDeviation="2"/>
<feComposite in2="hardAlpha" operator="out"/>
<feColorMatrix type="matrix" values="0 0 0 0 0 0 0 0 0 0 0 0 0 0 0 0 0 0 0.25 0"/>
<feBlend mode="normal" in2="BackgroundImageFix" result="effect1_dropShadow_50516_4532"/>
<feBlend mode="normal" in="SourceGraphic" in2="effect1_dropShadow_50516_4532" result="shape"/>
</filter>
</defs>
</svg>
