<svg width="32" height="33" viewBox="0 0 32 33" fill="none" xmlns="http://www.w3.org/2000/svg">
<path d="M4.02557 13.9194C12.008 13.9194 19.9712 13.9194 27.9728 13.9194C27.9728 14.0477 27.9728 14.1632 27.9728 14.2787C27.9728 17.8914 27.9728 21.5104 27.9728 25.123C27.9728 27.3047 26.3173 28.9666 24.142 28.9666C18.7071 28.9666 13.2785 28.9666 7.84352 28.9666C5.68108 28.9666 4.01273 27.3111 4.01273 25.1551C4.00632 21.5168 4.01273 17.8849 4.01273 14.2466C4.01273 14.1376 4.01915 14.0349 4.02557 13.9194ZM8.8702 16.9802C8.26061 16.9802 7.77294 17.4807 7.77936 18.0903C7.78577 18.687 8.26703 19.1683 8.86378 19.1747C9.47979 19.1811 9.96746 18.7063 9.96746 18.0903C9.96746 17.4678 9.47979 16.9802 8.8702 16.9802ZM12.9833 19.1683C13.5993 19.1683 14.0742 18.6806 14.0678 18.0646C14.0613 17.455 13.5673 16.9738 12.9512 16.9802C12.3609 16.993 11.8796 17.4807 11.8796 18.071C11.8796 18.6806 12.3737 19.1747 12.9833 19.1683ZM18.1809 18.0646C18.1745 17.455 17.674 16.9738 17.0644 16.9802C16.474 16.993 15.9928 17.4807 15.9928 18.0774C15.9928 18.687 16.4869 19.1747 17.0965 19.1683C17.706 19.1683 18.1809 18.6806 18.1809 18.0646ZM15.4409 23.5573C15.4409 22.9542 14.9468 22.4536 14.3373 22.4536C13.7533 22.4536 13.2592 22.9413 13.2464 23.5317C13.2336 24.1284 13.7277 24.6353 14.3373 24.6482C14.9404 24.661 15.4409 24.1669 15.4409 23.5573ZM19.5476 23.5445C19.5412 22.9413 19.0343 22.4472 18.4311 22.4601C17.8408 22.4729 17.3531 22.967 17.3531 23.5573C17.3531 24.1605 17.8472 24.6546 18.4568 24.6546C19.06 24.6546 19.5605 24.1477 19.5476 23.5445ZM22.5507 24.6482C23.1539 24.661 23.6544 24.1669 23.6608 23.5573C23.6672 22.967 23.1924 22.4793 22.5956 22.4536C22.0053 22.428 21.4855 22.9285 21.4662 23.5317C21.447 24.1348 21.9411 24.6353 22.5507 24.6482Z" fill="url(#paint0_linear_50516_4537)"/>
<path d="M11.5909 6.35406C14.5169 6.35406 17.4494 6.35406 20.4396 6.35406C20.4396 5.81506 20.4203 5.28247 20.4524 4.7563C20.4652 4.51246 20.5422 4.24937 20.6706 4.04404C20.8887 3.6847 21.3379 3.55637 21.7422 3.67828C22.1593 3.8002 22.4544 4.12104 22.4737 4.55096C22.4993 5.0643 22.4929 5.57764 22.4865 6.09098C22.4801 6.30915 22.5443 6.39256 22.7753 6.38615C23.3078 6.37331 23.8469 6.37331 24.3794 6.39256C26.3301 6.46315 27.9086 8.0545 27.9664 10.0116C27.9856 10.6084 27.9664 11.2051 27.9664 11.8275C19.9776 11.8275 12.008 11.8275 4.00632 11.8275C4.04482 10.8522 3.8844 9.87685 4.21165 8.92717C4.73782 7.39999 6.12384 6.4054 7.77936 6.37973C8.26061 6.37331 8.74187 6.3669 9.22312 6.37973C9.43487 6.38615 9.50546 6.31556 9.49904 6.10381C9.48621 5.64181 9.48621 5.18622 9.49904 4.72421C9.51187 4.07612 9.92255 3.63978 10.5129 3.63337C11.1161 3.62695 11.5396 4.08254 11.546 4.74346C11.5524 5.2568 11.5524 5.77014 11.5588 6.28348C11.5524 6.30273 11.5716 6.31556 11.5909 6.35406Z" fill="url(#paint1_linear_50516_4537)"/>
<defs>
<linearGradient id="paint0_linear_50516_4537" x1="4" y1="3.6333" x2="29.6714" y2="5.48823" gradientUnits="userSpaceOnUse">
<stop stop-color="#FFD036"/>
<stop offset="1" stop-color="#FFA43C"/>
</linearGradient>
<linearGradient id="paint1_linear_50516_4537" x1="4" y1="3.6333" x2="29.6714" y2="5.48823" gradientUnits="userSpaceOnUse">
<stop stop-color="#FFD036"/>
<stop offset="1" stop-color="#FFA43C"/>
</linearGradient>
</defs>
</svg>
