<svg width="32" height="33" viewBox="0 0 32 33" fill="none" xmlns="http://www.w3.org/2000/svg">
<path d="M16.0004 18.0641C15.2588 18.0641 14.5172 17.786 13.8682 17.3224L8.58401 13.058C8.3059 12.7799 8.21319 12.409 8.49131 12.0382C8.76942 11.7601 9.14025 11.6674 9.51107 11.9455L14.7953 16.21C15.5369 16.7662 16.5567 16.7662 17.2983 16.21L22.5825 11.9455C22.8606 11.6674 23.3242 11.7601 23.6023 12.0382C23.8804 12.3163 23.7877 12.7799 23.5096 13.058L18.2254 17.3224C17.4837 17.786 16.7421 18.0641 16.0004 18.0641Z" fill="#363330"/>
<path d="M10.16 27.6127C6.26638 27.6127 3.2998 24.4607 3.2998 20.289V12.2236C3.2998 8.05189 6.26638 4.8999 10.16 4.8999H21.8409C23.695 4.8999 25.5491 5.73425 26.847 7.12483C28.1449 8.51541 28.7938 10.3695 28.7011 12.3163V20.3817C28.7938 22.2358 28.1449 24.0899 26.847 25.4805C25.5491 26.8711 23.695 27.7054 21.8409 27.7054H10.16V27.6127ZM21.8409 6.38319H10.16C7.10073 6.38319 4.8758 8.88624 4.8758 12.1309V20.1963C4.8758 23.5337 7.10073 25.944 10.16 25.944H21.8409C23.3242 25.944 24.7148 25.2951 25.7345 24.2753C26.7543 23.1629 27.2178 21.7723 27.1251 20.289V12.1309C27.2178 10.6476 26.6616 9.16435 25.7345 8.05189C24.6221 7.03213 23.2315 6.47589 21.8409 6.38319Z" fill="#363330"/>
</svg>
