<svg width="32" height="33" viewBox="0 0 32 33" fill="none" xmlns="http://www.w3.org/2000/svg">
<path d="M16.0739 28.8214C13.4936 28.8641 10.9438 28.6018 8.49167 27.7295C7.49737 27.3757 6.56408 26.9182 5.76498 26.2167C4.69139 25.2712 4.36809 23.9354 4.95979 22.8191C5.36849 22.0444 6.01508 21.5137 6.75318 21.0806C8.00367 20.3486 9.37006 19.9216 10.7792 19.641C14.6099 18.8846 18.4346 18.9212 22.2349 19.8545C23.4122 20.1473 24.5468 20.556 25.5777 21.2148C26.3645 21.715 27.0416 22.3311 27.3222 23.2583C27.676 24.4233 27.2307 25.3688 26.3889 26.1618C25.596 26.906 24.6322 27.3635 23.6257 27.7234C21.7957 28.3822 19.8925 28.6933 17.9649 28.8153C17.3366 28.8519 16.7022 28.8214 16.0739 28.8214Z" fill="url(#paint0_linear_50516_4607)"/>
<path d="M22.2288 9.71025C22.1922 13.175 19.4045 15.9078 15.9519 15.8651C12.5908 15.8224 9.84586 13.0347 9.87026 9.66755C9.89466 6.19058 12.6823 3.45779 16.1593 3.50049C19.5204 3.53709 22.2654 6.34917 22.2288 9.71025Z" fill="url(#paint1_linear_50516_4607)"/>
<defs>
<linearGradient id="paint0_linear_50516_4607" x1="4.66699" y1="3.5" x2="29.0686" y2="5.17511" gradientUnits="userSpaceOnUse">
<stop stop-color="#FFD036"/>
<stop offset="1" stop-color="#FFA43C"/>
</linearGradient>
<linearGradient id="paint1_linear_50516_4607" x1="4.66699" y1="3.5" x2="29.0686" y2="5.17511" gradientUnits="userSpaceOnUse">
<stop stop-color="#FFD036"/>
<stop offset="1" stop-color="#FFA43C"/>
</linearGradient>
</defs>
</svg>
