<svg width="32" height="33" viewBox="0 0 32 33" fill="none" xmlns="http://www.w3.org/2000/svg">
<mask id="path-1-inside-1_50516_4367" fill="white">
<path d="M16.0838 19.3242C18.545 19.3551 21.0495 19.6087 23.4613 20.4373C24.4878 20.7898 25.471 21.2412 26.2873 21.9771C27.1159 22.7254 27.5674 23.6159 27.2458 24.7599C27.085 25.3288 26.7325 25.7926 26.2935 26.176C25.2484 27.0974 23.9869 27.5921 22.6697 27.9693C20.1838 28.6805 17.6298 28.8907 15.0573 28.8103C13.0537 28.7485 11.0749 28.495 9.15169 27.9137C7.9211 27.5426 6.73997 27.0665 5.75673 26.2131C5.02703 25.57 4.56323 24.797 4.68691 23.7766C4.77349 23.0408 5.17544 22.4718 5.70726 21.9957C6.74615 21.0681 8.01385 20.5796 9.32484 20.1962C11.5078 19.5592 13.7463 19.3428 16.0838 19.3242ZM16.4673 27.2396C18.2977 27.2149 20.2147 27.0108 22.0946 26.4914C23.1521 26.2007 24.1786 25.8359 25.0567 25.1495C26.009 24.4074 26.0028 23.7519 25.0629 23.0098C24.4259 22.5028 23.6901 22.1874 22.9232 21.9215C21.2165 21.334 19.4479 21.0619 17.6546 20.963C15.0264 20.8084 12.423 20.9753 9.87521 21.6741C8.81776 21.9648 7.79123 22.3358 6.9193 23.0346C6.01027 23.7643 6.02264 24.4074 6.93785 25.1371C7.64282 25.6937 8.45909 26.0338 9.30629 26.3059C11.6005 27.0417 13.9566 27.2644 16.4673 27.2396Z"/>
<path d="M15.9787 15.6324C12.559 15.5953 9.90613 12.8682 9.93705 9.43616C9.97415 6.10922 12.7384 3.46251 16.1395 3.49343C19.4541 3.52435 22.1132 6.31329 22.0699 9.70207C22.0266 12.9734 19.2562 15.6695 15.9787 15.6324ZM11.5201 9.55366C11.5139 12.0396 13.5237 14.0555 16.0158 14.0555C18.4832 14.0555 20.493 12.0396 20.493 9.56603C20.493 7.09865 18.5079 5.09506 16.0467 5.0827C13.5484 5.06414 11.5263 7.06155 11.5201 9.55366Z"/>
</mask>
<path d="M16.0838 19.3242C18.545 19.3551 21.0495 19.6087 23.4613 20.4373C24.4878 20.7898 25.471 21.2412 26.2873 21.9771C27.1159 22.7254 27.5674 23.6159 27.2458 24.7599C27.085 25.3288 26.7325 25.7926 26.2935 26.176C25.2484 27.0974 23.9869 27.5921 22.6697 27.9693C20.1838 28.6805 17.6298 28.8907 15.0573 28.8103C13.0537 28.7485 11.0749 28.495 9.15169 27.9137C7.9211 27.5426 6.73997 27.0665 5.75673 26.2131C5.02703 25.57 4.56323 24.797 4.68691 23.7766C4.77349 23.0408 5.17544 22.4718 5.70726 21.9957C6.74615 21.0681 8.01385 20.5796 9.32484 20.1962C11.5078 19.5592 13.7463 19.3428 16.0838 19.3242ZM16.4673 27.2396C18.2977 27.2149 20.2147 27.0108 22.0946 26.4914C23.1521 26.2007 24.1786 25.8359 25.0567 25.1495C26.009 24.4074 26.0028 23.7519 25.0629 23.0098C24.4259 22.5028 23.6901 22.1874 22.9232 21.9215C21.2165 21.334 19.4479 21.0619 17.6546 20.963C15.0264 20.8084 12.423 20.9753 9.87521 21.6741C8.81776 21.9648 7.79123 22.3358 6.9193 23.0346C6.01027 23.7643 6.02264 24.4074 6.93785 25.1371C7.64282 25.6937 8.45909 26.0338 9.30629 26.3059C11.6005 27.0417 13.9566 27.2644 16.4673 27.2396Z" fill="#363330"/>
<path d="M15.9787 15.6324C12.559 15.5953 9.90613 12.8682 9.93705 9.43616C9.97415 6.10922 12.7384 3.46251 16.1395 3.49343C19.4541 3.52435 22.1132 6.31329 22.0699 9.70207C22.0266 12.9734 19.2562 15.6695 15.9787 15.6324ZM11.5201 9.55366C11.5139 12.0396 13.5237 14.0555 16.0158 14.0555C18.4832 14.0555 20.493 12.0396 20.493 9.56603C20.493 7.09865 18.5079 5.09506 16.0467 5.0827C13.5484 5.06414 11.5263 7.06155 11.5201 9.55366Z" fill="#363330"/>
<path d="M16.0838 19.3242L16.0964 18.3243L16.0862 18.3242L16.0759 18.3243L16.0838 19.3242ZM23.4613 20.4373L23.1363 21.3831L23.1365 21.3831L23.4613 20.4373ZM26.2873 21.9771L26.9575 21.2349L26.9569 21.2344L26.2873 21.9771ZM27.2458 24.7599L28.2081 25.0318L28.2085 25.0305L27.2458 24.7599ZM26.2935 26.176L25.6357 25.4228L25.6321 25.4259L26.2935 26.176ZM22.6697 27.9693L22.9447 28.9308L22.945 28.9307L22.6697 27.9693ZM15.0573 28.8103L15.0886 27.8108L15.0882 27.8108L15.0573 28.8103ZM9.15169 27.9137L9.44102 26.9564L9.44036 26.9562L9.15169 27.9137ZM5.75673 26.2131L5.09551 26.9633L5.10126 26.9683L5.75673 26.2131ZM4.68691 23.7766L5.67965 23.897L5.68006 23.8935L4.68691 23.7766ZM5.70726 21.9957L5.04124 21.2497L5.04021 21.2507L5.70726 21.9957ZM9.32484 20.1962L9.04474 19.2362L9.04415 19.2364L9.32484 20.1962ZM16.4673 27.2396L16.4771 28.2396L16.4808 28.2395L16.4673 27.2396ZM22.0946 26.4914L21.8296 25.5271L21.8283 25.5275L22.0946 26.4914ZM25.0567 25.1495L24.442 24.3607L24.4408 24.3616L25.0567 25.1495ZM25.0629 23.0098L24.44 23.7922L24.4432 23.7947L25.0629 23.0098ZM22.9232 21.9215L23.2509 20.9767L23.2487 20.9759L22.9232 21.9215ZM17.6546 20.963L17.5958 21.9612L17.5995 21.9614L17.6546 20.963ZM9.87521 21.6741L9.61071 20.7097L9.61018 20.7099L9.87521 21.6741ZM6.9193 23.0346L6.29393 22.2542L6.29331 22.2547L6.9193 23.0346ZM6.93785 25.1371L6.31444 25.919L6.31821 25.922L6.93785 25.1371ZM9.30629 26.3059L9.00051 27.258L9.00086 27.2581L9.30629 26.3059ZM15.9787 15.6324L15.99 14.6325L15.9896 14.6325L15.9787 15.6324ZM9.93705 9.43616L8.93711 9.42501L8.93709 9.42716L9.93705 9.43616ZM16.1395 3.49343L16.1488 2.49348L16.1486 2.49347L16.1395 3.49343ZM22.0699 9.70207L23.0698 9.7153L23.0698 9.71485L22.0699 9.70207ZM11.5201 9.55366L12.5201 9.55615V9.55614L11.5201 9.55366ZM16.0467 5.0827L16.0393 6.08267L16.0417 6.08268L16.0467 5.0827ZM16.0713 20.3242C18.4774 20.3544 20.8643 20.6024 23.1363 21.3831L23.7862 19.4916C21.2347 18.6149 18.6126 18.3559 16.0964 18.3243L16.0713 20.3242ZM23.1365 21.3831C24.1086 21.7169 24.9463 22.1145 25.6177 22.7199L26.9569 21.2344C25.9958 20.3679 24.8669 19.8627 23.786 19.4915L23.1365 21.3831ZM25.6171 22.7193C25.9571 23.0264 26.1619 23.3116 26.2643 23.5784C26.3599 23.8274 26.3883 24.115 26.2831 24.4893L28.2085 25.0305C28.4249 24.2607 28.3884 23.531 28.1315 22.8617C27.8814 22.2103 27.4461 21.6762 26.9575 21.2349L25.6171 22.7193ZM26.2835 24.4879C26.1904 24.8174 25.9765 25.1252 25.6357 25.4228L26.9512 26.9292C27.4886 26.46 27.9797 25.8402 28.2081 25.0318L26.2835 24.4879ZM25.6321 25.4259C24.7538 26.2003 23.6627 26.6448 22.3944 27.008L22.945 28.9307C24.3111 28.5395 25.743 27.9945 26.9548 26.9261L25.6321 25.4259ZM22.3947 27.0079C20.0333 27.6834 17.5873 27.8889 15.0886 27.8108L15.0261 29.8099C17.6723 29.8925 20.3343 29.6775 22.9447 28.9308L22.3947 27.0079ZM15.0882 27.8108C13.1474 27.7509 11.2594 27.5061 9.44102 26.9564L8.86237 28.8709C10.8903 29.4839 12.9601 29.7461 15.0265 29.8099L15.0882 27.8108ZM9.44036 26.9562C8.25598 26.5991 7.23585 26.1727 6.4122 25.4579L5.10126 26.9683C6.24409 27.9602 7.58621 28.4861 8.86302 28.8711L9.44036 26.9562ZM6.41793 25.4629C5.83574 24.9498 5.60929 24.4774 5.67965 23.897L3.69418 23.6563C3.51718 25.1166 4.21831 26.1902 5.09553 26.9633L6.41793 25.4629ZM5.68006 23.8935C5.7282 23.4843 5.94866 23.1218 6.3743 22.7407L5.04021 21.2507C4.40222 21.8219 3.81878 22.5972 3.69376 23.6598L5.68006 23.8935ZM6.37327 22.7416C7.2419 21.9661 8.33358 21.5279 9.60554 21.156L9.04415 19.2364C7.69413 19.6312 6.25041 20.1701 5.04124 21.2497L6.37327 22.7416ZM9.60495 21.1561C11.6694 20.5537 13.8089 20.3423 16.0918 20.3242L16.0759 18.3243C13.6838 18.3432 11.3461 18.5647 9.04474 19.2362L9.60495 21.1561ZM16.4808 28.2395C18.3738 28.214 20.3792 28.0028 22.3609 27.4553L21.8283 25.5275C20.0502 26.0188 18.2215 26.2158 16.4537 26.2397L16.4808 28.2395ZM22.3596 27.4556C23.4515 27.1555 24.6346 26.7487 25.6726 25.9373L24.4408 24.3616C23.7226 24.923 22.8526 25.246 21.8296 25.5271L22.3596 27.4556ZM25.6713 25.9383C26.2112 25.5176 26.7694 24.9095 26.7694 24.0797C26.7694 23.2524 26.214 22.6445 25.6825 22.225L24.4432 23.7947C24.6289 23.9413 24.7197 24.0465 24.7595 24.1063C24.7939 24.1581 24.7694 24.1434 24.7694 24.0797C24.7694 24.0155 24.7942 23.9999 24.7604 24.0505C24.721 24.1094 24.6299 24.2143 24.442 24.3607L25.6713 25.9383ZM25.6857 22.2275C24.9159 21.6146 24.0531 21.2549 23.2509 20.9767L22.5956 22.8663C23.327 23.1199 23.936 23.3909 24.44 23.7922L25.6857 22.2275ZM23.2487 20.9759C21.4309 20.3502 19.566 20.0669 17.7097 19.9645L17.5995 21.9614C19.3298 22.0569 21.0021 22.3178 22.5978 22.867L23.2487 20.9759ZM17.7133 19.9647C15.005 19.8054 12.2882 19.9754 9.61071 20.7097L10.1397 22.6385C12.5577 21.9753 15.0478 21.8114 17.5958 21.9612L17.7133 19.9647ZM9.61018 20.7099C8.51454 21.011 7.32798 21.4255 6.29393 22.2542L7.54467 23.8149C8.25448 23.246 9.12098 22.9185 10.1402 22.6384L9.61018 20.7099ZM6.29331 22.2547C5.77076 22.6742 5.23534 23.2791 5.24455 24.0971C5.25367 24.9072 5.79402 25.5041 6.31445 25.919L7.56126 24.3552C7.38143 24.2118 7.29315 24.1091 7.25427 24.0505C7.2204 23.9994 7.24373 24.0129 7.24442 24.0746C7.24513 24.1375 7.22129 24.1554 7.25048 24.1102C7.28528 24.0562 7.36856 23.9563 7.54529 23.8144L6.29331 22.2547ZM6.31821 25.922C7.16048 26.5869 8.10814 26.9714 9.00051 27.258L9.61207 25.3538C8.81005 25.0962 8.12516 24.8004 7.5575 24.3522L6.31821 25.922ZM9.00086 27.2581C11.4313 28.0376 13.9027 28.2649 16.4771 28.2396L16.4574 26.2397C14.0105 26.2638 11.7698 26.0458 9.61172 25.3536L9.00086 27.2581ZM15.9896 14.6325C13.1272 14.6014 10.911 12.3315 10.937 9.44517L8.93709 9.42716C8.90125 13.405 11.9909 16.5892 15.9679 16.6324L15.9896 14.6325ZM10.937 9.44732C10.9677 6.6931 13.2592 4.46729 16.1304 4.49339L16.1486 2.49347C12.2175 2.45774 8.9806 5.52535 8.93711 9.42501L10.937 9.44732ZM16.1302 4.49339C18.8683 4.51893 21.1065 6.83102 21.07 9.6893L23.0698 9.71485C23.1199 5.79557 20.0398 2.52977 16.1488 2.49348L16.1302 4.49339ZM21.07 9.68884C21.034 12.4065 18.7182 14.6634 15.99 14.6325L15.9674 16.6324C19.7942 16.6757 23.0192 13.5403 23.0698 9.7153L21.07 9.68884ZM10.5201 9.55117C10.5126 12.5909 12.971 15.0555 16.0158 15.0555V13.0555C14.0764 13.0555 12.5153 11.4883 12.5201 9.55615L10.5201 9.55117ZM16.0158 15.0555C19.0382 15.0555 21.493 12.5892 21.493 9.56603H19.493C19.493 11.49 17.9282 13.0555 16.0158 13.0555V15.0555ZM21.493 9.56603C21.493 6.55171 19.0667 4.09786 16.0518 4.08271L16.0417 6.08268C17.9492 6.09227 19.493 7.64559 19.493 9.56603H21.493ZM16.0542 4.08272C13.004 4.06007 10.5277 6.50254 10.5201 9.55118L12.5201 9.55614C12.5249 7.62055 14.0929 6.06822 16.0393 6.08267L16.0542 4.08272Z" fill="#363330" mask="url(#path-1-inside-1_50516_4367)"/>
</svg>
