<svg width="32" height="33" viewBox="0 0 32 33" fill="none" xmlns="http://www.w3.org/2000/svg">
<path d="M16 16.2998H15.0385C15.0385 16.5548 15.1397 16.7994 15.3201 16.9797L16 16.2998ZM17.8842 19.5438C18.2597 19.9193 18.8685 19.9193 19.244 19.5438C19.6195 19.1683 19.6195 18.5595 19.244 18.184L17.8842 19.5438ZM16.9615 9.88955C16.9615 9.35851 16.531 8.92801 16 8.92801C15.469 8.92801 15.0385 9.35851 15.0385 9.88955H16.9615ZM26.5769 16.2998C26.5769 22.1412 21.8414 26.8767 16 26.8767V28.7998C22.9036 28.7998 28.5 23.2034 28.5 16.2998H26.5769ZM16 26.8767C10.1585 26.8767 5.42308 22.1412 5.42308 16.2998H3.5C3.5 23.2034 9.09644 28.7998 16 28.7998V26.8767ZM5.42308 16.2998C5.42308 10.4583 10.1585 5.72288 16 5.72288V3.7998C9.09644 3.7998 3.5 9.39624 3.5 16.2998H5.42308ZM16 5.72288C21.8414 5.72288 26.5769 10.4583 26.5769 16.2998H28.5C28.5 9.39624 22.9036 3.7998 16 3.7998V5.72288ZM15.3201 16.9797L17.8842 19.5438L19.244 18.184L16.6799 15.6199L15.3201 16.9797ZM16.9615 16.2998V9.88955H15.0385V16.2998H16.9615Z" fill="#363330"/>
</svg>
