<svg width="32" height="33" viewBox="0 0 32 33" fill="none" xmlns="http://www.w3.org/2000/svg">
<path d="M2.99414 16.0904C2.99414 9.01516 8.72815 3.29346 15.8218 3.29346C22.8847 3.29346 28.6003 9.04592 28.5941 16.1458C28.588 23.1902 22.8355 28.8996 15.7541 28.8935C8.72199 28.8873 2.99414 23.141 2.99414 16.0904ZM21.039 10.8732C20.9714 10.8732 20.9467 10.867 20.9283 10.8732C18.4058 11.7099 15.8833 12.5528 13.3609 13.4018C13.244 13.4387 13.1271 13.5925 13.084 13.7156C12.2596 16.1581 11.4475 18.6067 10.6292 21.0492C10.6046 21.1292 10.5862 21.2153 10.5677 21.3014C10.6169 21.3014 10.6354 21.3076 10.6538 21.3014C13.1763 20.4586 15.6988 19.6218 18.2212 18.7728C18.3381 18.7359 18.455 18.5821 18.4981 18.459C18.9226 17.2286 19.3287 15.9981 19.7347 14.7615C20.1654 13.4818 20.5961 12.1898 21.039 10.8732Z" fill="url(#paint0_linear_50516_4346)"/>
<defs>
<linearGradient id="paint0_linear_50516_4346" x1="2.99414" y1="3.29346" x2="30.389" y2="5.38507" gradientUnits="userSpaceOnUse">
<stop stop-color="#FFD036"/>
<stop offset="1" stop-color="#FFA43C"/>
</linearGradient>
</defs>
</svg>
