<svg width="34" height="34" viewBox="0 0 34 34" fill="none" xmlns="http://www.w3.org/2000/svg">
<rect width="34" height="34" rx="10" fill="#EAE9E6"/>
<path d="M17.1966 26.1667C17.1966 26.0445 17.1355 25.9834 17.0133 25.9834C16.5626 25.9834 16.1749 25.8211 15.8503 25.4964C15.5256 25.1718 15.3633 24.7841 15.3633 24.3334C15.3633 24.2112 15.3022 24.1501 15.18 24.1501C15.0578 24.1501 14.9966 24.2112 14.9966 24.3334C14.9966 24.891 15.1933 25.3666 15.5868 25.76C15.9802 26.1534 16.4557 26.3501 17.0133 26.3501C17.1355 26.3501 17.1966 26.289 17.1966 26.1667ZM26.5466 22.8667C26.5466 23.264 26.4015 23.6077 26.1112 23.898C25.821 24.1883 25.4772 24.3334 25.08 24.3334H19.9466C19.9466 25.1431 19.6602 25.8344 19.0873 26.4074C18.5144 26.9803 17.823 27.2667 17.0133 27.2667C16.2036 27.2667 15.5123 26.9803 14.9394 26.4074C14.3664 25.8344 14.08 25.1431 14.08 24.3334H8.94665C8.54942 24.3334 8.20567 24.1883 7.9154 23.898C7.62512 23.6077 7.47998 23.264 7.47998 22.8667C7.86192 22.5459 8.20949 22.2098 8.52269 21.8584C8.83588 21.507 9.16054 21.0506 9.49665 20.4891C9.83276 19.9277 10.1173 19.3223 10.3503 18.673C10.5833 18.0237 10.7743 17.2369 10.9232 16.3126C11.0722 15.3883 11.1466 14.3952 11.1466 13.3334C11.1466 12.1723 11.5935 11.0933 12.4873 10.0964C13.381 9.09954 14.5536 8.49416 16.005 8.28027C15.9439 8.13513 15.9133 7.98618 15.9133 7.8334C15.9133 7.52784 16.0203 7.26812 16.2341 7.05423C16.448 6.84034 16.7078 6.7334 17.0133 6.7334C17.3189 6.7334 17.5786 6.84034 17.7925 7.05423C18.0064 7.26812 18.1133 7.52784 18.1133 7.8334C18.1133 7.98618 18.0828 8.13513 18.0216 8.28027C19.473 8.49416 20.6456 9.09954 21.5394 10.0964C22.4331 11.0933 22.88 12.1723 22.88 13.3334C22.88 14.3952 22.9545 15.3883 23.1034 16.3126C23.2524 17.2369 23.4433 18.0237 23.6763 18.673C23.9093 19.3223 24.1939 19.9277 24.53 20.4891C24.8661 21.0506 25.1907 21.507 25.5039 21.8584C25.8171 22.2098 26.1647 22.5459 26.5466 22.8667Z" fill="#363330"/>
</svg>
