<svg width="24" height="24" viewBox="0 0 24 24" fill="none" xmlns="http://www.w3.org/2000/svg">
<path d="M20.3125 10.8125H13.1875V3.6875C13.1875 3.37256 13.0624 3.07051 12.8397 2.84781C12.617 2.62511 12.3149 2.5 12 2.5C11.6851 2.5 11.383 2.62511 11.1603 2.84781C10.9376 3.07051 10.8125 3.37256 10.8125 3.6875V10.8125H3.6875C3.37256 10.8125 3.07051 10.9376 2.84781 11.1603C2.62511 11.383 2.5 11.6851 2.5 12C2.5 12.3149 2.62511 12.617 2.84781 12.8397C3.07051 13.0624 3.37256 13.1875 3.6875 13.1875H10.8125V20.3125C10.8125 20.6274 10.9376 20.9295 11.1603 21.1522C11.383 21.3749 11.6851 21.5 12 21.5C12.3149 21.5 12.617 21.3749 12.8397 21.1522C13.0624 20.9295 13.1875 20.6274 13.1875 20.3125V13.1875H20.3125C20.6274 13.1875 20.9295 13.0624 21.1522 12.8397C21.3749 12.617 21.5 12.3149 21.5 12C21.5 11.6851 21.3749 11.383 21.1522 11.1603C20.9295 10.9376 20.6274 10.8125 20.3125 10.8125Z" fill="#363330"/>
</svg>
