<svg width="12" height="12" viewBox="0 0 12 12" fill="none" xmlns="http://www.w3.org/2000/svg">
<path d="M4.99253 7.70999C5.66666 7.65566 6.3439 7.65566 7.01803 7.70999C7.38513 7.73139 7.75049 7.77731 8.11179 7.84747C8.89363 8.00577 9.40406 8.26406 9.62281 8.68066C9.78711 9.00579 9.78711 9.39285 9.62281 9.71798C9.40406 10.1346 8.91389 10.4095 8.10369 10.5512C7.74267 10.624 7.37723 10.6713 7.00992 10.6928C6.66964 10.7303 6.32936 10.7303 5.98503 10.7303H5.36522C5.23559 10.7136 5.11001 10.7053 4.98848 10.7053C4.62117 10.6864 4.25564 10.6405 3.89472 10.5678C3.11288 10.4179 2.60245 10.1512 2.3837 9.73465C2.29925 9.57327 2.25473 9.393 2.25402 9.20974C2.25231 9.02536 2.29548 8.84347 2.37965 8.68066C2.59435 8.26406 3.10477 7.99328 3.89472 7.84747C4.25723 7.77631 4.62401 7.73038 4.99253 7.70999ZM6.00123 1.36523C7.35927 1.36523 8.46018 2.49739 8.46018 3.89397C8.46018 5.29056 7.35927 6.42271 6.00123 6.42271C4.64319 6.42271 3.54228 5.29056 3.54228 3.89397C3.54228 2.49739 4.64319 1.36523 6.00123 1.36523Z" fill="#8C8A87"/>
</svg>
