<svg width="28" height="28" viewBox="0 0 28 28" fill="none" xmlns="http://www.w3.org/2000/svg">
<path d="M9.33366 24.4998H4.66699C4.35757 24.4998 4.06083 24.3769 3.84203 24.1581C3.62324 23.9393 3.50033 23.6426 3.50033 23.3332V18.6665C3.50033 18.3571 3.37741 18.0603 3.15862 17.8415C2.93982 17.6228 2.64308 17.4998 2.33366 17.4998C2.02424 17.4998 1.72749 17.6228 1.5087 17.8415C1.28991 18.0603 1.16699 18.3571 1.16699 18.6665V23.3332C1.16699 24.2614 1.53574 25.1517 2.19212 25.808C2.8485 26.4644 3.73873 26.8332 4.66699 26.8332H9.33366C9.64308 26.8332 9.93983 26.7103 10.1586 26.4915C10.3774 26.2727 10.5003 25.9759 10.5003 25.6665C10.5003 25.3571 10.3774 25.0603 10.1586 24.8415C9.93983 24.6228 9.64308 24.4998 9.33366 24.4998ZM25.667 17.4998C25.3576 17.4998 25.0608 17.6228 24.842 17.8415C24.6232 18.0603 24.5003 18.3571 24.5003 18.6665V23.3332C24.5003 23.6426 24.3774 23.9393 24.1586 24.1581C23.9398 24.3769 23.6431 24.4998 23.3337 24.4998H18.667C18.3576 24.4998 18.0608 24.6228 17.842 24.8415C17.6232 25.0603 17.5003 25.3571 17.5003 25.6665C17.5003 25.9759 17.6232 26.2727 17.842 26.4915C18.0608 26.7103 18.3576 26.8332 18.667 26.8332H23.3337C24.2619 26.8332 25.1522 26.4644 25.8085 25.808C26.4649 25.1517 26.8337 24.2614 26.8337 23.3332V18.6665C26.8337 18.3571 26.7107 18.0603 26.492 17.8415C26.2732 17.6228 25.9764 17.4998 25.667 17.4998ZM23.3337 1.1665H18.667C18.3576 1.1665 18.0608 1.28942 17.842 1.50821C17.6232 1.72701 17.5003 2.02375 17.5003 2.33317C17.5003 2.64259 17.6232 2.93934 17.842 3.15813C18.0608 3.37692 18.3576 3.49984 18.667 3.49984H23.3337C23.6431 3.49984 23.9398 3.62275 24.1586 3.84155C24.3774 4.06034 24.5003 4.35708 24.5003 4.6665V9.33317C24.5003 9.64259 24.6232 9.93934 24.842 10.1581C25.0608 10.3769 25.3576 10.4998 25.667 10.4998C25.9764 10.4998 26.2732 10.3769 26.492 10.1581C26.7107 9.93934 26.8337 9.64259 26.8337 9.33317V4.6665C26.8337 3.73825 26.4649 2.84801 25.8085 2.19163C25.1522 1.53525 24.2619 1.1665 23.3337 1.1665ZM2.33366 10.4998C2.64308 10.4998 2.93982 10.3769 3.15862 10.1581C3.37741 9.93934 3.50033 9.64259 3.50033 9.33317V4.6665C3.50033 4.35708 3.62324 4.06034 3.84203 3.84155C4.06083 3.62275 4.35757 3.49984 4.66699 3.49984H9.33366C9.64308 3.49984 9.93983 3.37692 10.1586 3.15813C10.3774 2.93934 10.5003 2.64259 10.5003 2.33317C10.5003 2.02375 10.3774 1.72701 10.1586 1.50821C9.93983 1.28942 9.64308 1.1665 9.33366 1.1665H4.66699C3.73873 1.1665 2.8485 1.53525 2.19212 2.19163C1.53574 2.84801 1.16699 3.73825 1.16699 4.6665V9.33317C1.16699 9.64259 1.28991 9.93934 1.5087 10.1581C1.72749 10.3769 2.02424 10.4998 2.33366 10.4998ZM11.667 5.83317H7.00033C6.69091 5.83317 6.39416 5.95609 6.17537 6.17488C5.95658 6.39367 5.83366 6.69042 5.83366 6.99984V11.6665C5.83366 11.9759 5.95658 12.2727 6.17537 12.4915C6.39416 12.7103 6.69091 12.8332 7.00033 12.8332H11.667C11.9764 12.8332 12.2732 12.7103 12.492 12.4915C12.7107 12.2727 12.8337 11.9759 12.8337 11.6665V6.99984C12.8337 6.69042 12.7107 6.39367 12.492 6.17488C12.2732 5.95609 11.9764 5.83317 11.667 5.83317ZM10.5003 10.4998H8.16699V8.1665H10.5003V10.4998ZM16.3337 12.8332H21.0003C21.3097 12.8332 21.6065 12.7103 21.8253 12.4915C22.0441 12.2727 22.167 11.9759 22.167 11.6665V6.99984C22.167 6.69042 22.0441 6.39367 21.8253 6.17488C21.6065 5.95609 21.3097 5.83317 21.0003 5.83317H16.3337C16.0242 5.83317 15.7275 5.95609 15.5087 6.17488C15.2899 6.39367 15.167 6.69042 15.167 6.99984V11.6665C15.167 11.9759 15.2899 12.2727 15.5087 12.4915C15.7275 12.7103 16.0242 12.8332 16.3337 12.8332ZM17.5003 8.1665H19.8337V10.4998H17.5003V8.1665ZM11.667 15.1665H7.00033C6.69091 15.1665 6.39416 15.2894 6.17537 15.5082C5.95658 15.727 5.83366 16.0238 5.83366 16.3332V20.9998C5.83366 21.3093 5.95658 21.606 6.17537 21.8248C6.39416 22.0436 6.69091 22.1665 7.00033 22.1665H11.667C11.9764 22.1665 12.2732 22.0436 12.492 21.8248C12.7107 21.606 12.8337 21.3093 12.8337 20.9998V16.3332C12.8337 16.0238 12.7107 15.727 12.492 15.5082C12.2732 15.2894 11.9764 15.1665 11.667 15.1665ZM10.5003 19.8332H8.16699V17.4998H10.5003V19.8332ZM16.3337 18.6665C16.6431 18.6665 16.9398 18.5436 17.1586 18.3248C17.3774 18.106 17.5003 17.8093 17.5003 17.4998C17.8097 17.4998 18.1065 17.3769 18.3253 17.1581C18.5441 16.9393 18.667 16.6426 18.667 16.3332C18.667 16.0238 18.5441 15.727 18.3253 15.5082C18.1065 15.2894 17.8097 15.1665 17.5003 15.1665H16.3337C16.0242 15.1665 15.7275 15.2894 15.5087 15.5082C15.2899 15.727 15.167 16.0238 15.167 16.3332V17.4998C15.167 17.8093 15.2899 18.106 15.5087 18.3248C15.7275 18.5436 16.0242 18.6665 16.3337 18.6665ZM21.0003 15.1665C20.6909 15.1665 20.3942 15.2894 20.1754 15.5082C19.9566 15.727 19.8337 16.0238 19.8337 16.3332V19.8332C19.5242 19.8332 19.2275 19.9561 19.0087 20.1749C18.7899 20.3937 18.667 20.6904 18.667 20.9998C18.667 21.3093 18.7899 21.606 19.0087 21.8248C19.2275 22.0436 19.5242 22.1665 19.8337 22.1665H21.0003C21.3097 22.1665 21.6065 22.0436 21.8253 21.8248C22.0441 21.606 22.167 21.3093 22.167 20.9998V16.3332C22.167 16.0238 22.0441 15.727 21.8253 15.5082C21.6065 15.2894 21.3097 15.1665 21.0003 15.1665ZM16.3337 19.8332C16.1029 19.8332 15.8774 19.9016 15.6855 20.0298C15.4936 20.158 15.3441 20.3402 15.2558 20.5534C15.1675 20.7666 15.1444 21.0011 15.1894 21.2274C15.2344 21.4538 15.3455 21.6616 15.5087 21.8248C15.6719 21.988 15.8797 22.0991 16.1061 22.1441C16.3324 22.1891 16.5669 22.166 16.7801 22.0777C16.9933 21.9894 17.1755 21.8399 17.3037 21.648C17.4319 21.4561 17.5003 21.2306 17.5003 20.9998C17.5003 20.6904 17.3774 20.3937 17.1586 20.1749C16.9398 19.9561 16.6431 19.8332 16.3337 19.8332Z" fill="url(#paint0_linear_50433_35534)"/>
<defs>
<linearGradient id="paint0_linear_50433_35534" x1="1.16699" y1="1.1665" x2="28.6332" y2="3.26356" gradientUnits="userSpaceOnUse">
<stop stop-color="#FFD036"/>
<stop offset="1" stop-color="#FFA43C"/>
</linearGradient>
</defs>
</svg>
