<svg width="64" height="32" viewBox="0 0 64 32" fill="none" xmlns="http://www.w3.org/2000/svg">
<rect width="64" height="32" rx="12" fill="#FFD036"/>
<g clip-path="url(#clip0_50828_9390)">
<path d="M8.32267 26.5702C7.35448 26.9762 7.13586 26.7264 7.35448 26.1954C7.47941 25.8415 7.96871 24.6547 8.82238 22.635C7.34407 21.5315 6.45916 19.9386 6.16767 17.8565C5.63672 14.2961 6.1989 9.89234 10.3215 7.019C14.4441 4.14566 20.5656 4.95769 23.314 7.83103C26.3123 10.923 27.624 18.325 22.8143 22.7912C19.587 25.7686 15.8079 26.4141 11.4771 24.7275C10.0404 25.6853 8.98895 26.2995 8.32267 26.5702Z" fill="white"/>
<path d="M20.2221 17.4193C19.816 20.7611 18.0046 22.229 15.2562 22.229C13.2157 22.2082 11.6749 21.365 10.6338 19.6993C10.5089 19.5743 10.4152 19.3245 10.4152 19.0434C10.5714 19.0746 10.6963 18.7935 10.7588 18.7311C10.8525 18.6998 10.9462 18.6686 11.1023 18.6061C11.4146 19.0226 11.779 19.3869 12.1954 19.6993C12.7576 20.1365 13.4135 20.4488 14.1318 20.5738C14.8502 20.6675 15.5997 20.5425 16.2868 20.2302C16.5992 20.0428 16.9115 19.8242 17.1613 19.5431C17.4112 19.262 17.5986 18.9185 17.7235 18.5749C18.0046 17.8878 18.0671 17.1695 18.0983 16.4824C18.1191 15.7744 18.1087 15.0769 18.0671 14.3898L17.9734 13.3904C17.9421 13.0468 17.9109 12.7033 17.9109 12.3597C17.9109 12.0474 17.9421 11.7039 18.0046 11.3916C18.0983 11.0792 18.2544 10.7669 18.4106 10.4858C18.192 10.7357 17.9734 11.0168 17.8484 11.3291C17.6923 11.6726 17.6298 12.0162 17.5986 12.3597C17.5361 13.0468 17.5673 13.734 17.5673 14.4211C17.5673 15.0769 17.5361 15.764 17.5049 16.4511C17.4736 17.107 17.38 17.7629 17.1613 18.3563C17.0572 18.6478 16.9115 18.9185 16.7241 19.1683C16.5367 19.3974 16.2972 19.5847 16.0057 19.7305C15.4748 20.0116 14.8189 20.1677 14.1943 20.1053C13.5697 20.074 12.9138 19.8242 12.3516 19.4806C11.9352 19.2308 11.55 18.9289 11.196 18.5749C11.2377 18.5541 11.2793 18.5333 11.321 18.5124C11.6333 18.3251 11.6957 18.0752 11.7582 18.044C11.7894 18.0127 11.7894 17.9815 11.7894 17.919C12.8825 18.5437 14.7877 18.9497 15.912 17.919C17.0676 16.8884 16.7241 13.8276 17.0364 12.2036C17.3175 10.5795 18.4106 10.6732 18.4731 10.4234C18.4731 10.2672 18.4731 9.89242 18.4418 9.61133C18.598 9.61133 18.8791 9.61133 19.1289 9.67379C19.1289 9.86118 19.0977 10.111 19.1289 10.236C19.2539 10.7044 19.8473 10.8918 20.0971 11.6414C20.4095 12.5471 20.5968 14.3274 20.2221 17.4193Z" fill="#FFD036"/>
<path d="M11.1023 18.6059C10.9461 18.6683 10.8524 18.6996 10.7588 18.7308C10.6963 18.7933 10.5714 19.0744 10.4152 19.0431C10.3736 19.0431 10.3319 19.0015 10.2903 18.9182C10.0717 18.5434 10.1966 18.5434 10.3215 18.2936C10.4152 18.0437 10.8212 17.8251 11.0711 17.7002C11.196 17.6065 11.5083 17.6065 11.6645 17.7002C11.7269 17.7314 11.7894 17.8251 11.7894 17.9188C11.7894 17.9812 11.7894 18.0125 11.7582 18.0437C11.6957 18.0749 11.6332 18.3248 11.3209 18.5122C11.2793 18.533 11.2376 18.5538 11.196 18.5746" fill="#904F1D"/>
<path d="M19.7848 9.54849C19.7224 9.89204 19.5662 9.79834 19.1914 9.67341C19.1706 9.67341 19.1498 9.67341 19.129 9.67341C18.8791 9.61095 18.598 9.61095 18.4419 9.61095C18.421 9.61095 18.4002 9.62136 18.3794 9.64218C18.1504 9.68383 17.963 9.63177 17.8172 9.48602C17.5674 9.2674 17.4112 9.08001 17.3487 8.79892C17.3279 8.59071 17.432 8.37208 17.6611 8.14305C17.8797 8.01812 19.5974 8.61153 19.8473 8.86138C20.0659 9.14247 19.8161 9.1737 19.7848 9.54849Z" fill="#904F1D"/>
</g>
<path d="M30 17.5449V16.7992L33.1229 16.4086V17.5449C33.1229 17.9947 33.2648 18.3616 33.5487 18.6457C33.8563 18.9534 34.223 19.1073 34.6488 19.1073C35.0983 19.1073 35.465 18.9534 35.7489 18.6457C36.0565 18.3616 36.2103 17.9947 36.2103 17.5449V9.76855H39.3332V17.5449C39.3332 18.8469 38.8718 19.9476 37.9492 20.8472C37.0501 21.7704 35.95 22.232 34.6488 22.232C33.3713 22.232 32.2712 21.7704 31.3485 20.8472C30.4495 19.9476 30 18.8469 30 17.5449Z" fill="white"/>
<path d="M43.9819 22.232H40.8945V9.76855H43.9819V22.232Z" fill="white"/>
<path fill-rule="evenodd" clip-rule="evenodd" d="M51.7897 22.232C50.0627 22.232 48.5959 21.6284 47.3893 20.4211C46.1591 19.1901 45.5439 17.7224 45.5439 16.018C45.5439 14.29 46.1591 12.8223 47.3893 11.615C48.5959 10.384 50.0627 9.76855 51.7897 9.76855C53.4931 9.76855 54.9599 10.384 56.1901 11.615C57.3967 12.8223 58 14.29 58 16.018C58 17.7224 57.3967 19.1901 56.1901 20.4211C54.9599 21.6284 53.4931 22.232 51.7897 22.232ZM51.7897 19.1073C52.6414 19.1073 53.3748 18.8114 53.9899 18.2196C54.5814 17.6041 54.8771 16.8702 54.8771 16.018C54.8771 15.1422 54.5814 14.4083 53.9899 13.8165C53.3748 13.201 52.6414 12.8933 51.7897 12.8933C50.9144 12.8933 50.181 13.201 49.5895 13.8165C48.9744 14.4083 48.6668 15.1422 48.6668 16.018C48.6668 16.8702 48.9744 17.6041 49.5895 18.2196C50.181 18.8114 50.9144 19.1073 51.7897 19.1073Z" fill="white"/>
<defs>
<clipPath id="clip0_50828_9390">
<rect width="20" height="21.5441" fill="white" transform="translate(6 5.22754)"/>
</clipPath>
</defs>
</svg>
