<svg width="34" height="34" viewBox="0 0 34 34" fill="none" xmlns="http://www.w3.org/2000/svg">
<rect width="34" height="34" rx="10" fill="#EAE9E6"/>
<path d="M17.666 7.66684C18.1793 7.65751 18.6656 7.84324 19.0287 8.19884C19.3936 8.54324 19.5887 9.02017 19.5887 9.52417C19.5887 10.5508 20.438 11.3824 21.4936 11.3824C21.8193 11.3824 22.146 11.2882 22.4363 11.1295C23.3407 10.6432 24.47 10.9522 24.9833 11.8202L25.6189 12.9122C25.7776 13.1922 25.87 13.5095 25.87 13.8362C25.87 14.4988 25.5069 15.1158 24.9189 15.4415C24.6287 15.6002 24.386 15.8428 24.2189 16.1238C23.7233 17.0002 24.0323 18.1099 24.9189 18.6158C25.814 19.1282 26.122 20.2491 25.6189 21.1348L24.9833 22.1904C24.6473 22.7682 24.022 23.1238 23.35 23.1238C23.014 23.1238 22.678 23.0388 22.3989 22.8708C22.0993 22.7122 21.7736 22.6188 21.446 22.6188C20.942 22.6188 20.4567 22.8158 20.1029 23.1695C19.738 23.5158 19.542 23.9908 19.542 24.4855C19.542 25.5028 18.6936 26.3335 17.638 26.3335H16.3603C15.8553 26.3335 15.3793 26.1282 15.034 25.7828C14.6793 25.4282 14.4936 24.9615 14.4936 24.4762C14.4936 23.4495 13.6527 22.6188 12.5989 22.6188C12.2527 22.6188 11.9167 22.7122 11.6273 22.8904C11.1887 23.1322 10.666 23.1975 10.1807 23.0762C9.69533 22.9455 9.27533 22.6282 9.02333 22.2082L8.42693 21.1535C8.146 20.7158 8.062 20.1922 8.1936 19.6975C8.32333 19.2028 8.66027 18.7828 9.11667 18.5308C9.40693 18.3722 9.64867 18.1388 9.81667 17.8495C10.3029 16.9722 9.994 15.8708 9.11667 15.3575C8.23 14.8535 7.922 13.7428 8.42693 12.8655L9.02333 11.8202C9.27533 11.3824 9.69533 11.0642 10.19 10.9335C10.6856 10.8028 11.2073 10.8766 11.646 11.1295C11.9447 11.2882 12.2713 11.3722 12.5989 11.3722C13.1029 11.3722 13.5873 11.1762 13.942 10.8308C14.2967 10.4855 14.4936 10.0095 14.4936 9.52417C14.4936 8.49751 15.342 7.66684 16.3967 7.66684H17.666ZM18.0403 14.6491C17.0603 14.2468 15.93 14.4615 15.174 15.1988C14.4273 15.9268 14.194 17.0375 14.6047 17.9904C15.0069 18.9508 15.958 19.5762 17.022 19.5762H17.0323C17.7323 19.5855 18.3856 19.3158 18.8793 18.8295C19.374 18.3535 19.654 17.7002 19.654 17.0188C19.6633 15.9828 19.0193 15.0402 18.0403 14.6491Z" fill="#363330"/>
</svg>
